<?xml version="1.0" encoding="utf-8"?>
<!-- Generator: Adobe Illustrator 22.0.0, SVG Export Plug-In . SVG Version: 6.00 Build 0)  -->
<svg  width="64" height="64" version="1.1" id="Layer_1" xmlns="http://www.w3.org/2000/svg" xmlns:xlink="http://www.w3.org/1999/xlink" x="0px" y="0px"
	 viewBox="0 0 218 256" style="enable-background:new 0 0 218 256;" xml:space="preserve">
<style type="text/css">
	.st0{fill:url(#Head_1_);}
	.st1{fill:#FFFFFF;}
	.st2{fill:url(#path-3_2_);}
</style>
<title>build-icons/Stable Copy 3</title>
<desc>Created with Sketch.</desc>
<g id="starting-collection">
	<g id="Build-Icons" transform="translate(-70.000000, -350.000000)">
		<g id="build-icons_x2F_Stable" transform="translate(50.000000, 350.000000)">
			<g id="Logo" transform="translate(20.114286, 0.000000)">
				
					<linearGradient id="Head_1_" gradientUnits="userSpaceOnUse" x1="-535.6418" y1="989.623" x2="-534.6418" y2="989.623" gradientTransform="matrix(217.6 0 0 -255.4727 116555.6719 252949.4375)">
					<stop  offset="0" style="stop-color:#FF5500"/>
					<stop  offset="0.4099" style="stop-color:#FF5500"/>
					<stop  offset="0.582" style="stop-color:#FF2000"/>
					<stop  offset="1" style="stop-color:#FF2000"/>
				</linearGradient>
				<path id="Head" class="st0" d="M210,61.3l6-14.7c0,0-7.6-8.2-16.9-17.4s-28.8-3.8-28.8-3.8L148,0h-39.2H69.6L47.3,25.3
					c0,0-19.6-5.4-28.8,3.8S1.6,46.6,1.6,46.6l6,14.7L0,83.1c0,0,22.4,84.9,25,95.3c5.2,20.4,8.7,28.3,23.4,38.7s41.3,28.3,45.7,31
					c4.4,2.7,9.8,7.4,14.7,7.4c4.9,0,10.3-4.6,14.7-7.4c4.4-2.7,31-20.7,45.7-31s18.2-18.2,23.4-38.7c2.6-10.4,25-95.3,25-95.3
					L210,61.3z"/>
				<path id="Face" class="st1" d="M164,41.4c0,0,28.7,34.7,28.7,42.1c0,7.4-3.6,9.4-7.2,13.2c-3.6,3.9-19.5,20.7-21.5,22.9
					c-2,2.2-6.3,5.4-3.8,11.3c2.5,5.9,6.2,13.4,2.1,21c-4.1,7.6-11.1,12.7-15.6,11.9c-4.5-0.8-15-6.4-18.9-8.9
					c-3.9-2.5-16.2-12.7-16.2-16.5c0-3.9,12.7-10.8,15-12.4c2.3-1.6,13-7.7,13.3-10.1c0.2-2.4,0.1-3.1-3-9.1
					c-3.2-5.9-8.8-13.9-7.9-19.2c0.9-5.3,10.1-8,16.7-10.5c6.5-2.5,19.1-7.1,20.7-7.9c1.6-0.7,1.2-1.4-3.6-1.9
					c-4.8-0.5-18.3-2.3-24.4-0.5c-6.1,1.7-16.5,4.3-17.4,5.7c-0.8,1.4-1.6,1.4-0.7,6.2c0.9,4.7,5.3,27.5,5.8,31.5
					c0.4,4,1.3,6.7-3.1,7.7c-4.3,1-11.7,2.7-14.2,2.7S99,119,94.6,118c-4.3-1-3.5-3.7-3.1-7.7c0.4-4,4.9-26.8,5.8-31.5
					c0.9-4.7,0.1-4.8-0.7-6.2c-0.8-1.4-11.3-4-17.4-5.7c-6.1-1.7-19.6,0.1-24.4,0.5s-5.2,1.1-3.6,1.9c1.6,0.7,14.2,5.4,20.7,7.9
					c6.5,2.5,15.7,5.2,16.7,10.5c0.9,5.3-4.7,13.2-7.9,19.2c-3.2,5.9-3.2,6.6-3,9.1c0.2,2.4,10.9,8.5,13.3,10.1
					c2.3,1.6,15,8.6,15,12.4c0,3.9-12.3,14-16.2,16.5s-14.4,8-18.9,8.9c-4.5,0.8-11.5-4.2-15.6-11.9c-4.1-7.6-0.4-15.1,2.1-21
					c2.5-5.9-1.7-9.2-3.8-11.3c-2-2.2-17.9-19-21.5-22.9c-3.6-3.9-7.2-5.8-7.2-13.2c0-7.4,28.7-42.1,28.7-42.1S77.8,46,81.1,46
					s10.3-2.7,16.9-4.9c6.5-2.2,10.9-2.2,10.9-2.2s4.4,0,10.9,2.2s13.6,4.9,16.9,4.9C139.8,46,164,41.4,164,41.4z M142.5,174.2
					c1.8,1.1,0.7,3.2-0.9,4.4c-1.6,1.1-23.4,18-25.5,19.9c-2.1,1.9-5.2,4.9-7.3,4.9c-2.1,0-5.2-3.1-7.3-4.9
					c-2.1-1.9-23.8-18.7-25.5-19.9c-1.6-1.1-2.7-3.2-0.9-4.4c1.8-1.1,7.3-3.9,15-7.9c7.7-4,17.2-7.3,18.7-7.3s11,3.4,18.7,7.3
					C135.2,170.3,140.7,173.1,142.5,174.2z"/>
				<g id="Top-Head">
					
						<linearGradient id="path-3_2_" gradientUnits="userSpaceOnUse" x1="-535.114" y1="976.5334" x2="-534.1354" y2="976.5334" gradientTransform="matrix(180.608 0 0 -46.0337 96668.2422 44976.4648)">
						<stop  offset="0" style="stop-color:#FF452A"/>
						<stop  offset="1" style="stop-color:#FF2000"/>
					</linearGradient>
					<path id="path-3_1_" class="st2" d="M170.3,25.3L148,0h-39.2H69.6L47.3,25.3c0,0-19.6-5.4-28.8,3.8c0,0,26.1-2.4,35.1,12.3
						c0,0,24.2,4.6,27.5,4.6s10.3-2.7,16.9-4.9c6.5-2.2,10.9-2.2,10.9-2.2s4.4,0,10.9,2.2s13.6,4.9,16.9,4.9
						c3.3,0,27.5-4.6,27.5-4.6c9-14.6,35.1-12.3,35.1-12.3C189.9,19.9,170.3,25.3,170.3,25.3"/>
				</g>
			</g>
		</g>
	</g>
</g>
</svg>
