<?xml version="1.0" encoding="utf-8"?>
<!-- Generator: Adobe Illustrator 22.0.0, SVG Export Plug-In . SVG Version: 6.00 Build 0)  -->
<svg  width="876" height="764" version="1.1" id="Layer_1" xmlns="http://www.w3.org/2000/svg" xmlns:xlink="http://www.w3.org/1999/xlink" x="0px" y="0px"
	  style="enable-background:new 0 0 876 764;" xml:space="preserve">
<style type="text/css">
	.st0{filter:url(#a);}
	.st1{fill:url(#SVGID_1_);}
	.st2{fill:url(#SVGID_2_);}
	.st3{fill:url(#SVGID_3_);}
	.st4{opacity:0.64;fill:#FF6C50;}
	.st5{opacity:0.64;fill:#268DF7;}
	.st6{fill:url(#SVGID_4_);}
	.st7{fill:#282840;}
	.st8{fill:#4D6FFF;}
	.st9{fill:url(#SVGID_5_);}
	.st10{fill:url(#SVGID_6_);}
	.st11{fill:url(#SVGID_7_);}
	.st12{fill:url(#SVGID_8_);}
	.st13{fill:url(#SVGID_9_);}
	.st14{fill:#454195;}
	.st15{fill:#2A294F;}
	.st16{fill:#310381;}
	.st17{opacity:0.2;fill:url(#SVGID_10_);enable-background:new    ;}
	.st18{fill:url(#SVGID_11_);}
	.st19{fill:url(#SVGID_12_);}
	.st20{fill:url(#SVGID_13_);}
	.st21{fill:url(#SVGID_14_);}
	.st22{fill:url(#SVGID_15_);}
	.st23{fill:url(#SVGID_16_);}
	.st24{fill:url(#SVGID_17_);}
	.st25{opacity:0.2;fill:url(#SVGID_18_);enable-background:new    ;}
	.st26{fill:url(#SVGID_19_);}
	.st27{fill:url(#SVGID_20_);}
	.st28{fill:url(#SVGID_21_);}
	.st29{fill:url(#SVGID_22_);}
	.st30{fill:url(#SVGID_23_);}
	.st31{fill:url(#SVGID_24_);}
	.st32{fill:url(#SVGID_25_);}
	.st33{opacity:0.2;fill:url(#SVGID_26_);enable-background:new    ;}
	.st34{fill:url(#SVGID_27_);}
	.st35{fill:url(#SVGID_28_);}
	.st36{fill:url(#SVGID_29_);}
	.st37{fill:url(#SVGID_30_);}
	.st38{fill:url(#SVGID_31_);}
	.st39{fill:url(#SVGID_32_);}
	.st40{fill:url(#SVGID_33_);}
	.st41{opacity:0.17;}
	.st42{fill:none;stroke:#6868D5;stroke-width:2;stroke-linecap:round;stroke-linejoin:round;stroke-dasharray:12.0355,12.0355;}
	.st43{fill:none;stroke:#6868D5;stroke-width:2;stroke-linecap:round;stroke-linejoin:round;}
</style>
<filter  id="a">
	<feTurbulence  baseFrequency=".3" numOctaves="2" result="turb" stitchTiles="noStitch" type="fractalNoise"></feTurbulence>
	<feComposite  in="turb" k1=".1" k2=".1" k3=".1" k4=".1" operator="arithmetic" result="result1"></feComposite>
	<feComposite  in="result1" in2="SourceGraphic" operator="in" result="finalFilter"></feComposite>
	<feBlend  in="finalFilter" in2="SourceGraphic" mode="multiply"></feBlend>
</filter>
<g class="st0">
	
		<linearGradient id="SVGID_1_" gradientUnits="userSpaceOnUse" x1="-208.0206" y1="1245.8774" x2="-208.0206" y2="1244.8774" gradientTransform="matrix(435.9999 0 0 -428.4803 91131.9844 534028.9375)">
		<stop  offset="0" style="stop-color:#4234F8"/>
		<stop  offset="1" style="stop-color:#4234F8;stop-opacity:0"/>
	</linearGradient>
	<path class="st1" d="M390.3,541.3C428,778.6,827.1,433,563.6,368.1C300.1,303.3,486,195,390.3,195S217,272.5,217,368.1
		C217,463.8,352.5,303.9,390.3,541.3z"/>
	
		<linearGradient id="SVGID_2_" gradientUnits="userSpaceOnUse" x1="-210.2782" y1="1245.328" x2="-209.2841" y2="1245.328" gradientTransform="matrix(103.5348 -328.0497 -328.0511 -103.5344 430492.5 60277.5664)">
		<stop  offset="0" style="stop-color:#009A93;stop-opacity:0.2"/>
		<stop  offset="1" style="stop-color:#29FD88"/>
	</linearGradient>
	<path class="st2" d="M270,344c95,0,172-77,172-172S365,0,270,0s46.9,178.4-172,172S175,344,270,344z"/>
	
		<linearGradient id="SVGID_3_" gradientUnits="userSpaceOnUse" x1="-208.9794" y1="1245.8904" x2="-208.9794" y2="1244.8904" gradientTransform="matrix(-435.9999 0 0 -428.4803 -90679.9844 534028.9375)">
		<stop  offset="0" style="stop-color:#FEF776;stop-opacity:0.8"/>
		<stop  offset="1" style="stop-color:#FEF776;stop-opacity:0"/>
	</linearGradient>
	<path class="st3" d="M479.7,535.7C442,773.1,42.9,427.4,306.4,362.6c263.5-64.8,77.6-173.1,173.3-173.1S653,266.9,653,362.6
		C653,458.2,517.5,298.3,479.7,535.7z"/>
	<g>
		<polygon class="st4" points="642.3,218 640.5,218.8 640,220.6 640.6,222.3 642.3,223 643.9,222.2 645,220.6 644.2,218.8 		"/>
	</g>
	<g>
		<polygon class="st5" points="614.7,200 611.8,201.3 611,204.2 611.9,206.8 614.7,208 617.3,206.7 619,204.2 617.7,201.2 		"/>
	</g>
	<g>
		
			<linearGradient id="SVGID_4_" gradientUnits="userSpaceOnUse" x1="255.7383" y1="641.0024" x2="257.1124" y2="616.5991" gradientTransform="matrix(0.5232 0.8522 -0.8522 0.5232 532.0162 -199.6157)">
			<stop  offset="0" style="stop-color:#009A93"/>
			<stop  offset="1" style="stop-color:#29FD88"/>
		</linearGradient>
		<polygon class="st6" points="115.8,343.1 116.5,369.6 139.1,355.8 138.3,329.3 		"/>
		<polygon class="st7" points="139.1,355.8 162.3,368.4 139.8,382.3 116.5,369.6 		"/>
		<polygon class="st8" points="138.3,329.2 161.7,341.9 162.3,368.4 139.1,355.7 		"/>
		
			<linearGradient id="SVGID_5_" gradientUnits="userSpaceOnUse" x1="256.1643" y1="612.1" x2="279.1165" y2="612.1" gradientTransform="matrix(0.5232 0.8522 -0.8522 0.5232 532.0162 -199.6157)">
			<stop  offset="0" style="stop-color:#009A93"/>
			<stop  offset="1" style="stop-color:#29FD88"/>
		</linearGradient>
		<polygon class="st9" points="144.3,339 144.8,352.2 156.3,358.6 156,345.2 		"/>
		<polygon class="st7" points="155.9,345.2 144.7,352.1 144.2,338.9 		"/>
		<polygon class="st8" points="132.9,339.4 133.4,352.4 121.9,359.5 121.4,346.1 		"/>
		<polygon class="st7" points="121.4,346.1 133.4,352.4 132.9,339.4 		"/>
		
			<linearGradient id="SVGID_6_" gradientUnits="userSpaceOnUse" x1="273.4627" y1="632.0251" x2="285.0048" y2="632.0251" gradientTransform="matrix(0.5232 0.8522 -0.8522 0.5232 532.0162 -199.6157)">
			<stop  offset="0" style="stop-color:#009A93"/>
			<stop  offset="1" style="stop-color:#29FD88"/>
		</linearGradient>
		<polygon class="st10" points="139.2,362.4 151,368.7 139.6,375.7 128,369.3 		"/>
		<polygon class="st8" points="139.6,375.7 139.2,362.4 128,369.3 		"/>
	</g>
	<g>
		
			<linearGradient id="SVGID_7_" gradientUnits="userSpaceOnUse" x1="-1046.8459" y1="309.709" x2="-1045.7947" y2="291.039" gradientTransform="matrix(0.4125 -0.9109 0.9109 0.4125 883.6227 -512.1379)">
			<stop  offset="0.1241" style="stop-color:#7562FF"/>
			<stop  offset="0.3903" style="stop-color:#8473FF"/>
			<stop  offset="0.7048" style="stop-color:#8F80FF"/>
			<stop  offset="1" style="stop-color:#9384FF"/>
		</linearGradient>
		<polygon class="st11" points="728.9,576.2 745.3,564.3 726.8,556 710.4,567.8 		"/>
		
			<linearGradient id="SVGID_8_" gradientUnits="userSpaceOnUse" x1="724.8408" y1="215.973" x2="745.3353" y2="215.973" gradientTransform="matrix(1 0 0 -1 0 766)">
			<stop  offset="0.1241" style="stop-color:#7562FF"/>
			<stop  offset="0.3903" style="stop-color:#8473FF"/>
			<stop  offset="0.7048" style="stop-color:#8F80FF"/>
			<stop  offset="1" style="stop-color:#9384FF"/>
		</linearGradient>
		<polygon class="st12" points="726.8,556 724.8,535.8 743.3,544.1 745.3,564.3 		"/>
		
			<linearGradient id="SVGID_9_" gradientUnits="userSpaceOnUse" x1="708.3734" y1="214.1752" x2="726.7823" y2="214.1752" gradientTransform="matrix(1 0 0 -1 0 766)">
			<stop  offset="0" style="stop-color:#6152F5"/>
			<stop  offset="1" style="stop-color:#66A6FC"/>
		</linearGradient>
		<polygon class="st13" points="710.4,567.8 708.4,547.6 724.8,535.8 726.8,556 		"/>
		<polygon class="st14" points="714,559.8 722.1,553.9 721.2,543.8 712.9,549.8 		"/>
		<polygon class="st15" points="712.9,549.8 722.1,553.9 713.9,560 		"/>
		<polygon class="st16" points="719.1,566.8 727.1,561 736.6,565.2 728.3,571.3 		"/>
		<polygon class="st15" points="728.3,571.3 727.1,561 719.1,566.9 		"/>
		<polygon class="st14" points="731,553 729.9,542.9 739.2,547 740.2,557.2 		"/>
		<polygon class="st16" points="739.2,547 731,553 740.2,557.2 		"/>
	</g>
	<g>
		
			<linearGradient id="SVGID_10_" gradientUnits="userSpaceOnUse" x1="150.5673" y1="1239.7405" x2="151.4045" y2="1193.9589" gradientTransform="matrix(1 0 0 1 0 -682)">
			<stop  offset="0" style="stop-color:#ED695C"/>
			<stop  offset="0.51" style="stop-color:#F3967C"/>
			<stop  offset="1" style="stop-color:#F8BE98"/>
		</linearGradient>
		<path class="st17" d="M172.8,522.6c-0.4-0.9-1.2-1.7-2-2.2l-17.2-9.9c-1.6-0.9-3.5-0.9-5.2,0l-17.2,9.9c-0.6,0.4-1.1,0.8-1.5,1.3
			c-0.2,0.3-0.4,0.6-0.6,0.9c-0.4,0.7-0.5,1.5-0.5,2.2v19.8c0,1.9,1,3.5,2.6,4.5l17.2,9.9c1.6,0.9,3.6,0.9,5.2,0l17.2-9.9
			c1.6-0.9,2.6-2.6,2.6-4.5v-19.8C173.3,524.2,173.1,523.4,172.8,522.6z"/>
		
			<linearGradient id="SVGID_11_" gradientUnits="userSpaceOnUse" x1="151.1211" y1="1227.2307" x2="163.1214" y2="1217.277" gradientTransform="matrix(1 0 0 1 0 -682)">
			<stop  offset="0" style="stop-color:#ED695C"/>
			<stop  offset="0.51" style="stop-color:#F3967C"/>
			<stop  offset="1" style="stop-color:#F8BE98"/>
		</linearGradient>
		<path class="st18" d="M165.8,526.5l-14.9,8.3v17c0.6,0,1.2-0.1,1.7-0.4l11.7-6.8c1.1-0.6,1.7-1.8,1.7-3v-13.5
			C166.2,527.5,166.1,527,165.8,526.5z"/>
		
			<linearGradient id="SVGID_12_" gradientUnits="userSpaceOnUse" x1="4882.582" y1="3499.6038" x2="4881.7451" y2="3471.5503" gradientTransform="matrix(6.123234e-17 1 -1 6.123234e-17 3635.6201 -4355.8501)">
			<stop  offset="0" style="stop-color:#ED695C"/>
			<stop  offset="0.51" style="stop-color:#F3967C"/>
			<stop  offset="1" style="stop-color:#F8BE98"/>
		</linearGradient>
		<path class="st19" d="M165.8,526.5c-0.3-0.6-0.8-1.2-1.4-1.5l-11.7-6.8c-1.1-0.6-2.4-0.6-3.5,0l-11.7,6.8c-0.4,0.2-0.7,0.6-1,0.9
			l14.5,8.8L165.8,526.5z"/>
		
			<linearGradient id="SVGID_13_" gradientUnits="userSpaceOnUse" x1="151.1306" y1="1215.6602" x2="151.1306" y2="1201.4672" gradientTransform="matrix(1 0 0 1 0 -682)">
			<stop  offset="0" style="stop-color:#ED695C"/>
			<stop  offset="0.51" style="stop-color:#F3967C"/>
			<stop  offset="1" style="stop-color:#F8BE98"/>
		</linearGradient>
		<path class="st20" d="M165.8,526.5c-0.3-0.6-0.8-1.2-1.4-1.5l-11.7-6.8c-1.1-0.6-2.4-0.6-3.5,0l-11.7,6.8c-0.4,0.2-0.7,0.6-1,0.9
			l14.5,8.8L165.8,526.5z"/>
		
			<linearGradient id="SVGID_14_" gradientUnits="userSpaceOnUse" x1="4895.2456" y1="3499.2307" x2="4894.4219" y2="3471.1772" gradientTransform="matrix(6.123234e-17 1 -1 6.123234e-17 3635.6201 -4355.8501)">
			<stop  offset="0" style="stop-color:#ED695C"/>
			<stop  offset="0.51" style="stop-color:#F3967C"/>
			<stop  offset="1" style="stop-color:#F8BE98"/>
		</linearGradient>
		<path class="st21" d="M136.1,526.5c-0.2,0.5-0.4,1-0.4,1.5v13.5c0,1.3,0.6,2.4,1.7,3.1l11.7,6.8c0.5,0.3,1.2,0.4,1.7,0.4v-17
			L136.1,526.5z"/>
		
			<linearGradient id="SVGID_15_" gradientUnits="userSpaceOnUse" x1="4886.4507" y1="3499.4839" x2="4885.6265" y2="3471.4434" gradientTransform="matrix(6.123234e-17 1 -1 6.123234e-17 3635.6201 -4355.8501)">
			<stop  offset="0" style="stop-color:#ED695C"/>
			<stop  offset="0.51" style="stop-color:#F3967C"/>
			<stop  offset="1" style="stop-color:#F8BE98"/>
		</linearGradient>
		<path class="st22" d="M151,534.8l-14.5-8.8c-0.1,0.1-0.3,0.4-0.4,0.6L151,534.8z"/>
		
			<linearGradient id="SVGID_16_" gradientUnits="userSpaceOnUse" x1="143.5441" y1="1215.6602" x2="143.5441" y2="1201.4672" gradientTransform="matrix(1 0 0 1 0 -682)">
			<stop  offset="0" style="stop-color:#ED695C"/>
			<stop  offset="0.51" style="stop-color:#F3967C"/>
			<stop  offset="1" style="stop-color:#F8BE98"/>
		</linearGradient>
		<path class="st23" d="M151,534.8l-14.5-8.8c-0.1,0.1-0.3,0.4-0.4,0.6L151,534.8z"/>
		
			<linearGradient id="SVGID_17_" gradientUnits="userSpaceOnUse" x1="150.757" y1="1230.5059" x2="139.4877" y2="1215.6617" gradientTransform="matrix(1 0 0 1 0 -682)">
			<stop  offset="0" style="stop-color:#ED695C"/>
			<stop  offset="0.51" style="stop-color:#F3967C"/>
			<stop  offset="1" style="stop-color:#F8BE98"/>
		</linearGradient>
		<path class="st24" d="M136.5,526c-0.1,0.1-0.3,0.4-0.4,0.6c-0.2,0.5-0.4,1-0.4,1.5v13.5c0,1.3,0.7,2.4,1.8,3.1l11.7,6.8
			c0.5,0.3,1.2,0.4,1.7,0.4v-17L136.5,526z"/>
	</g>
	<g>
		
			<linearGradient id="SVGID_18_" gradientUnits="userSpaceOnUse" x1="45.4245" y1="1147.1836" x2="45.9334" y2="1119.1945" gradientTransform="matrix(1 0 0 1 0 -682)">
			<stop  offset="0" style="stop-color:#23B99D"/>
			<stop  offset="2.000000e-02" style="stop-color:#26BA9C"/>
			<stop  offset="0.69" style="stop-color:#8AE583"/>
			<stop  offset="1" style="stop-color:#B2F679"/>
		</linearGradient>
		<path class="st25" d="M59,443.7c-0.3-0.5-0.7-1-1.2-1.3l-10.5-6c-0.9-0.5-2.2-0.5-3.1,0l-10.5,6c-0.5,0.3-1,0.8-1.2,1.3
			c-0.2,0.4-0.3,0.9-0.3,1.4v12.1c0,1.1,0.6,2.1,1.5,2.7l10.5,6c1,0.5,2.1,0.5,3.1,0l10.5-6c1-0.5,1.6-1.6,1.6-2.7v-12.1
			C59.3,444.6,59.2,444.2,59,443.7z"/>
		
			<linearGradient id="SVGID_19_" gradientUnits="userSpaceOnUse" x1="45.7208" y1="1139.5173" x2="53.0552" y2="1133.4297" gradientTransform="matrix(1 0 0 1 0 -682)">
			<stop  offset="0" style="stop-color:#23B99D"/>
			<stop  offset="2.000000e-02" style="stop-color:#26BA9C"/>
			<stop  offset="0.69" style="stop-color:#8AE583"/>
			<stop  offset="1" style="stop-color:#B2F679"/>
		</linearGradient>
		<path class="st26" d="M54.7,446.1l-9.1,5.1v10.4c0.4,0,0.7-0.1,1.1-0.3l7.1-4.1c0.6-0.4,1.1-1.1,1.1-1.8V447
			C54.9,446.7,54.9,446.4,54.7,446.1z"/>
		
			<linearGradient id="SVGID_20_" gradientUnits="userSpaceOnUse" x1="4802.0732" y1="3599.1252" x2="4801.5708" y2="3581.9756" gradientTransform="matrix(6.123234e-17 1 -1 6.123234e-17 3635.6201 -4355.8501)">
			<stop  offset="0" style="stop-color:#23B99D"/>
			<stop  offset="2.000000e-02" style="stop-color:#26BA9C"/>
			<stop  offset="0.69" style="stop-color:#8AE583"/>
			<stop  offset="1" style="stop-color:#B2F679"/>
		</linearGradient>
		<path class="st27" d="M54.7,446.1c-0.2-0.4-0.5-0.7-0.8-0.9l-7.1-4.1c-0.6-0.4-1.5-0.4-2.1,0l-7.1,4.1c-0.2,0.1-0.4,0.3-0.6,0.5
			l8.8,5.4L54.7,446.1z"/>
		
			<linearGradient id="SVGID_21_" gradientUnits="userSpaceOnUse" x1="45.7602" y1="1132.4568" x2="45.7602" y2="1123.7802" gradientTransform="matrix(1 0 0 1 0 -682)">
			<stop  offset="0" style="stop-color:#23B99D"/>
			<stop  offset="2.000000e-02" style="stop-color:#26BA9C"/>
			<stop  offset="0.69" style="stop-color:#8AE583"/>
			<stop  offset="1" style="stop-color:#B2F679"/>
		</linearGradient>
		<path class="st28" d="M54.7,446.1c-0.2-0.4-0.5-0.7-0.8-0.9l-7.1-4.1c-0.6-0.4-1.5-0.4-2.1,0l-7.1,4.1c-0.2,0.1-0.4,0.3-0.6,0.5
			l8.8,5.4L54.7,446.1z"/>
		
			<linearGradient id="SVGID_22_" gradientUnits="userSpaceOnUse" x1="4809.8062" y1="3598.8965" x2="4809.2974" y2="3581.7466" gradientTransform="matrix(6.123234e-17 1 -1 6.123234e-17 3635.6201 -4355.8501)">
			<stop  offset="0" style="stop-color:#23B99D"/>
			<stop  offset="2.000000e-02" style="stop-color:#26BA9C"/>
			<stop  offset="0.69" style="stop-color:#8AE583"/>
			<stop  offset="1" style="stop-color:#B2F679"/>
		</linearGradient>
		<path class="st29" d="M36.5,446.1c-0.1,0.3-0.2,0.6-0.2,0.9v8.2c0,0.7,0.4,1.4,1.1,1.8l7.1,4.1c0.3,0.2,0.7,0.3,1.1,0.3v-10.4
			L36.5,446.1z"/>
		
			<linearGradient id="SVGID_23_" gradientUnits="userSpaceOnUse" x1="4804.4419" y1="3599.0552" x2="4803.9331" y2="3581.9053" gradientTransform="matrix(6.123234e-17 1 -1 6.123234e-17 3635.6201 -4355.8501)">
			<stop  offset="0" style="stop-color:#23B99D"/>
			<stop  offset="2.000000e-02" style="stop-color:#26BA9C"/>
			<stop  offset="0.69" style="stop-color:#8AE583"/>
			<stop  offset="1" style="stop-color:#B2F679"/>
		</linearGradient>
		<path class="st30" d="M45.6,451.2l-8.8-5.4c-0.1,0.1-0.1,0.2-0.2,0.3L45.6,451.2z"/>
		
			<linearGradient id="SVGID_24_" gradientUnits="userSpaceOnUse" x1="41.1128" y1="1132.4568" x2="41.1128" y2="1123.7802" gradientTransform="matrix(1 0 0 1 0 -682)">
			<stop  offset="0" style="stop-color:#23B99D"/>
			<stop  offset="2.000000e-02" style="stop-color:#26BA9C"/>
			<stop  offset="0.69" style="stop-color:#8AE583"/>
			<stop  offset="1" style="stop-color:#B2F679"/>
		</linearGradient>
		<path class="st31" d="M45.6,451.2l-8.8-5.4c-0.1,0.1-0.1,0.2-0.2,0.3L45.6,451.2z"/>
		
			<linearGradient id="SVGID_25_" gradientUnits="userSpaceOnUse" x1="45.5486" y1="1141.5072" x2="38.6595" y2="1132.4235" gradientTransform="matrix(1 0 0 1 0 -682)">
			<stop  offset="0" style="stop-color:#23B99D"/>
			<stop  offset="2.000000e-02" style="stop-color:#26BA9C"/>
			<stop  offset="0.69" style="stop-color:#8AE583"/>
			<stop  offset="1" style="stop-color:#B2F679"/>
		</linearGradient>
		<path class="st32" d="M36.8,445.7c-0.3,0.3-0.4,0.8-0.4,1.2v8.2c0,0.7,0.4,1.4,1.1,1.8l7.1,4.1c0.3,0.2,0.7,0.3,1.1,0.3v-10.4
			L36.8,445.7z"/>
	</g>
	<g>
		
			<linearGradient id="SVGID_26_" gradientUnits="userSpaceOnUse" x1="642.2461" y1="882.3259" x2="642.7346" y2="855.4568" gradientTransform="matrix(1 0 0 1 0 -682)">
			<stop  offset="0" style="stop-color:#6152F5"/>
			<stop  offset="1" style="stop-color:#66A6FC"/>
		</linearGradient>
		<path class="st33" d="M655.3,179.8c-0.3-0.6-0.7-1-1.2-1.3l-10.1-5.8c-0.9-0.6-2.1-0.6-3,0l-10.1,5.8c-0.5,0.3-0.9,0.7-1.2,1.3
			c-0.2,0.4-0.3,0.9-0.3,1.3v11.6c0,1.1,0.6,2.1,1.5,2.6l10.1,5.8c0.9,0.5,2.1,0.5,3,0l10.1-5.8c0.9-0.5,1.5-1.5,1.5-2.6v-11.6
			C655.7,180.6,655.5,180.1,655.3,179.8z"/>
		
			<linearGradient id="SVGID_27_" gradientUnits="userSpaceOnUse" x1="642.6359" y1="874.9973" x2="649.6769" y2="869.1533" gradientTransform="matrix(1 0 0 1 0 -682)">
			<stop  offset="0" style="stop-color:#6152F5"/>
			<stop  offset="1" style="stop-color:#66A6FC"/>
		</linearGradient>
		<path class="st34" d="M651.3,182l-8.7,4.9v10c0.4,0,0.7-0.1,1-0.3l6.9-4c0.6-0.4,1-1.1,1-1.8v-7.9
			C651.5,182.6,651.4,182.3,651.3,182z"/>
		
			<linearGradient id="SVGID_28_" gradientUnits="userSpaceOnUse" x1="4537.9961" y1="3001.8645" x2="4537.5137" y2="2985.4011" gradientTransform="matrix(6.123234e-17 1 -1 6.123234e-17 3635.6201 -4355.8501)">
			<stop  offset="0" style="stop-color:#23B99D"/>
			<stop  offset="2.000000e-02" style="stop-color:#26BA9C"/>
			<stop  offset="0.69" style="stop-color:#8AE583"/>
			<stop  offset="1" style="stop-color:#B2F679"/>
		</linearGradient>
		<path class="st35" d="M651.3,182c-0.1-0.4-0.4-0.6-0.8-0.9l-6.9-4c-0.6-0.4-1.4-0.4-2.1,0l-6.9,4c-0.2,0.1-0.4,0.3-0.6,0.6
			l8.5,5.2L651.3,182z"/>
		
			<linearGradient id="SVGID_29_" gradientUnits="userSpaceOnUse" x1="642.6345" y1="868.1899" x2="642.6345" y2="859.8605" gradientTransform="matrix(1 0 0 1 0 -682)">
			<stop  offset="0" style="stop-color:#6152F5"/>
			<stop  offset="1" style="stop-color:#66A6FC"/>
		</linearGradient>
		<path class="st36" d="M651.3,182c-0.1-0.4-0.4-0.6-0.8-0.9l-6.9-4c-0.6-0.4-1.4-0.4-2.1,0l-6.9,4c-0.2,0.1-0.4,0.3-0.6,0.6
			l8.5,5.2L651.3,182z"/>
		
			<linearGradient id="SVGID_30_" gradientUnits="userSpaceOnUse" x1="4545.4053" y1="3001.6453" x2="4544.917" y2="2985.1819" gradientTransform="matrix(6.123234e-17 1 -1 6.123234e-17 3635.6201 -4355.8501)">
			<stop  offset="0" style="stop-color:#23B99D"/>
			<stop  offset="2.000000e-02" style="stop-color:#26BA9C"/>
			<stop  offset="0.69" style="stop-color:#8AE583"/>
			<stop  offset="1" style="stop-color:#B2F679"/>
		</linearGradient>
		<path class="st37" d="M633.8,182c-0.1,0.3-0.2,0.6-0.2,0.9v7.9c0,0.7,0.4,1.4,1,1.8l6.9,4c0.3,0.2,0.6,0.3,1,0.3v-10L633.8,182z"
			/>
		
			<linearGradient id="SVGID_31_" gradientUnits="userSpaceOnUse" x1="4540.2734" y1="3001.7971" x2="4539.7852" y2="2985.3337" gradientTransform="matrix(6.123234e-17 1 -1 6.123234e-17 3635.6201 -4355.8501)">
			<stop  offset="0" style="stop-color:#23B99D"/>
			<stop  offset="2.000000e-02" style="stop-color:#26BA9C"/>
			<stop  offset="0.69" style="stop-color:#8AE583"/>
			<stop  offset="1" style="stop-color:#B2F679"/>
		</linearGradient>
		<path class="st38" d="M642.6,186.9l-8.5-5.2c-0.1,0.1-0.1,0.2-0.2,0.4L642.6,186.9z"/>
		
			<linearGradient id="SVGID_32_" gradientUnits="userSpaceOnUse" x1="638.212" y1="868.1899" x2="638.212" y2="859.8605" gradientTransform="matrix(1 0 0 1 0 -682)">
			<stop  offset="0" style="stop-color:#23B99D"/>
			<stop  offset="2.000000e-02" style="stop-color:#26BA9C"/>
			<stop  offset="0.69" style="stop-color:#8AE583"/>
			<stop  offset="1" style="stop-color:#B2F679"/>
		</linearGradient>
		<path class="st39" d="M642.6,186.9l-8.5-5.2c-0.1,0.1-0.1,0.2-0.2,0.4L642.6,186.9z"/>
		
			<linearGradient id="SVGID_33_" gradientUnits="userSpaceOnUse" x1="642.3942" y1="877.0948" x2="635.7808" y2="868.3746" gradientTransform="matrix(1 0 0 1 0 -682)">
			<stop  offset="0" style="stop-color:#6152F5"/>
			<stop  offset="1" style="stop-color:#66A6FC"/>
		</linearGradient>
		<path class="st40" d="M634,181.8c-0.3,0.4-0.4,0.8-0.4,1.2v7.9c0,0.7,0.4,1.4,1,1.8l6.9,4c0.3,0.2,0.6,0.3,1,0.3v-10L634,181.8z"
			/>
	</g>
</g>
<g class="st41">
	<g>
		<path class="st42" d="M731,553c41.6,140.9-232.9,51.1-282.2-51.6c-51.1-48.7-48.7-116.2-146.8-205.3
			C281.8,277.8,163.2,174.3,97.6,204c-50.1,22.7-79.7,187.3-51.9,247.1c40,86.1,168.8,116.4,257.4,79.3
			C436.2,474.6,465,163.7,629.4,181.1"/>
		<path class="st43" d="M327.7,525.8c-1,0.7-2.1,1.4-3.1,2"/>
	</g>
</g>
</svg>
