<?xml version="1.0" encoding="utf-8"?>
<!-- Generator: Adobe Illustrator 22.0.0, SVG Export Plug-In . SVG Version: 6.00 Build 0)  -->
<svg version="1.1" id="Layer_1" xmlns="http://www.w3.org/2000/svg" xmlns:xlink="http://www.w3.org/1999/xlink" x="0px" y="0px"
	 viewBox="0 0 1440 318" style="enable-background:new 0 0 1440 318;" xml:space="preserve">
<style type="text/css">
	.st0{filter:url(#b);}
	.st1{fill:url(#SVGID_1_);}
	.st2{fill:url(#SVGID_2_);}
	.st3{fill:url(#SVGID_3_);}
	.st4{fill:url(#SVGID_4_);}
</style>
<filter  id="b">
	<feTurbulence  baseFrequency=".3" numOctaves="2" result="turb" stitchTiles="noStitch" type="fractalNoise"></feTurbulence>
	<feComposite  in="turb" k1=".1" k2=".1" k3=".1" k4=".1" operator="arithmetic" result="result1"></feComposite>
	<feComposite  in="result1" in2="SourceGraphic" operator="in" result="finalFilter"></feComposite>
	<feBlend  in="finalFilter" in2="SourceGraphic" mode="multiply"></feBlend>
</filter>
<g>
	<g class="st0">
		
			<linearGradient id="SVGID_1_" gradientUnits="userSpaceOnUse" x1="72.3948" y1="1018.1183" x2="72.1945" y2="1015.1373" gradientTransform="matrix(313.29 0 0 -90.9924 -21433.6777 92472.1875)">
			<stop  offset="0" style="stop-color:#FFFFFF;stop-opacity:0"/>
			<stop  offset="0.9946" style="stop-color:#555B94"/>
		</linearGradient>
		<path class="st1" d="M1139.5,90c67,7.2,161.1-24.8,225-90h-313.3C1076.5,48.1,1093.6,85.1,1139.5,90z"/>
	</g>
	
		<linearGradient id="SVGID_2_" gradientUnits="userSpaceOnUse" x1="73.4378" y1="1025.9482" x2="73.4378" y2="1024.8181" gradientTransform="matrix(-399.3177 300.9075 167.4161 222.1686 -141041.1094 -249797.7969)">
		<stop  offset="0" style="stop-color:#606483;stop-opacity:0"/>
		<stop  offset="1" style="stop-color:#0B0D19;stop-opacity:0.72"/>
	</linearGradient>
	<path class="st2" d="M1239.5,7c-150.7-31.7-176.6,189.5-105.5,262c52,53,173.6,55.3,234-22c85-108.8,167.8-207,137.9-246.7
		C1476-39.4,1390.2,38.7,1239.5,7L1239.5,7z"/>
	
		<linearGradient id="SVGID_3_" gradientUnits="userSpaceOnUse" x1="74.4835" y1="1028.0656" x2="74.3441" y2="1027.0299" gradientTransform="matrix(-224.434 216.7334 84.3829 87.381 -68645.9688 -105796.5625)">
		<stop  offset="0" style="stop-color:#0B0D19;stop-opacity:0.32"/>
		<stop  offset="1" style="stop-color:#0B0D19;stop-opacity:0"/>
	</linearGradient>
	<path class="st3" d="M1309.3,52.5c-85.8,37.8-94.8,126.4-73.4,148.6c21.5,22.2,105.1,26.7,167.1-33.1
		c62-59.8,78.8-161.4,57.4-183.6C1438.9-37.8,1395.1,14.7,1309.3,52.5L1309.3,52.5z"/>
</g>
<linearGradient id="SVGID_4_" gradientUnits="userSpaceOnUse" x1="150.1705" y1="185.5968" x2="-5.0436" y2="-20.3793">
	<stop  offset="0" style="stop-color:#606483;stop-opacity:0"/>
	<stop  offset="1" style="stop-color:#0B0D19;stop-opacity:0.72"/>
</linearGradient>
<path class="st4" d="M-27,177c56.8,58.5,165.3,36.5,180,1c10.2-24.7-30-43.8-30-95c0-58,51.6-81.6,41-106C150.2-54.9,38.1-69.4-21-6
	C-65.3,41.4-75.1,127.4-27,177z"/>
</svg>
