<svg  width="150 " height="150"  id="Layer_1" data-name="Layer 1" xmlns="http://www.w3.org/2000/svg" xmlns:xlink="http://www.w3.org/1999/xlink" viewBox="0 0 1078.1357 446"><defs><style>.cls-1{fill:url(#linear-gradient);}.cls-2{fill:url(#New_Gradient_Swatch_4);}.cls-3{fill:url(#linear-gradient-2);}.cls-4{fill:url(#linear-gradient-3);}.cls-5{fill:url(#linear-gradient-4);}.cls-6{fill:url(#linear-gradient-5);}.cls-7{fill:url(#linear-gradient-6);}.cls-8{fill:url(#linear-gradient-7);}.cls-9{fill:url(#linear-gradient-8);}.cls-10{fill:url(#linear-gradient-9);}.cls-11{fill:#fff;}</style><linearGradient id="linear-gradient" x1="64.5127" y1="375.7719" x2="435.3854" y2="375.7719" gradientTransform="matrix(1, 0, 0, -1, 0, 514)" gradientUnits="userSpaceOnUse"><stop offset="0.0031" stop-color="#ff8c4d"/><stop offset="0.3886" stop-color="#ffa14d"/><stop offset="0.9322" stop-color="#ffa94c"/></linearGradient><linearGradient id="New_Gradient_Swatch_4" x1="426.9698" y1="378.67" x2="351.1011" y2="96.8677" gradientTransform="matrix(1, 0, 0, -1, 0, 514)" gradientUnits="userSpaceOnUse"><stop offset="0" stop-color="#ffa94c"/><stop offset="1" stop-color="#ffbb4e"/></linearGradient><linearGradient id="linear-gradient-2" x1="33" y1="191.1" x2="312.4943" y2="191.1" gradientTransform="matrix(1, 0, 0, -1, 0, 514)" gradientUnits="userSpaceOnUse"><stop offset="0" stop-color="#ff894c"/><stop offset="1" stop-color="#fcb44f"/></linearGradient><linearGradient id="linear-gradient-3" x1="149.7809" y1="256.6062" x2="361.8706" y2="256.6062" xlink:href="#linear-gradient"/><linearGradient id="linear-gradient-4" x1="215.9199" y1="280.9969" x2="281.2882" y2="280.9969" xlink:href="#linear-gradient"/><linearGradient id="linear-gradient-5" x1="176.9995" y1="258" x2="332.6423" y2="258" xlink:href="#linear-gradient"/><linearGradient id="linear-gradient-6" x1="231.7683" y1="258.6969" x2="280.5816" y2="258.6969" xlink:href="#linear-gradient"/><linearGradient id="linear-gradient-7" x1="354.2451" y1="81.9426" x2="354.319" y2="303.8373" gradientTransform="matrix(1, 0, 0, -1, 0, 514)" gradientUnits="userSpaceOnUse"><stop offset="0.0031" stop-color="#ff8c4d"/><stop offset="0.3886" stop-color="#ffa14d"/><stop offset="1" stop-color="#ffbb4e"/></linearGradient><linearGradient id="linear-gradient-8" x1="279.3743" y1="93.3101" x2="-9.5835" y2="317.9728" xlink:href="#linear-gradient"/><linearGradient id="linear-gradient-9" x1="336.611" y1="408.914" x2="106.4374" y2="330.163" gradientTransform="matrix(1, 0, 0, -1, 0, 514)" gradientUnits="userSpaceOnUse"><stop offset="0.0031" stop-color="#ff8c4d"/><stop offset="0.4296" stop-color="#fcb44f"/><stop offset="1" stop-color="#ffbb4e"/></linearGradient></defs><title>logo</title><path class="cls-1" d="M123.5938,243.4563c5.575-66.9,62.7187-119.8625,132.4062-119.8625H435.7937C395.375,67.8438,329.8687,33,256,33,175.1625,33,102.6875,76.2062,63.6625,141.7125Z" transform="translate(-33 -33)"/><path class="cls-2" d="M331.2625,147.2875C366.1062,170.9812,387.0125,211.4,388.4063,256c0,39.025-20.9063,71.0813-20.9063,71.0813l-86.4125,150.525C392.5875,465.0625,479,370.2875,479,256c0-39.025-9.7563-76.6562-27.875-108.7125Z" transform="translate(-33 -33)"/><path class="cls-3" d="M313.1438,375.8625c-16.7251,8.3625-36.2375,12.5438-55.75,12.5438-52.9625,0-98.9563-30.6626-119.8625-75.2625L51.1187,166.8C39.9688,194.675,33,223.9437,33,256c0,122.65,98.9562,221.6062,220.2125,223Z" transform="translate(-33 -33)"/><path class="cls-4" d="M256,361.925c-6.9687,0-12.5437,0-19.5125-1.3937-2.7875,0-4.1812-2.7876-4.1812-5.575s2.7875-4.1813,5.5749-4.1813c5.575,1.3938,11.15,1.3938,18.1188,1.3938A96.1688,96.1688,0,1,0,159.8313,256c0,8.3625,1.3937,15.3313,2.7875,23.6938,0,1.3937,1.3937,2.7875,1.3937,4.1812,1.3938,2.7875-1.3937,5.575-2.7875,6.9688-2.7875,1.3937-5.575-1.3938-6.9687-2.7876,0-1.3937-1.3938-2.7875-1.3938-4.1812-1.3937-8.3625-2.7875-16.725-2.7875-25.0875a105.925,105.925,0,0,1,211.85,0C361.925,314.5375,314.5375,361.925,256,361.925Z" transform="translate(-33 -33)"/><path class="cls-5" d="M221.1563,228.125h55.75c2.7875,0,4.1812,2.7875,4.1812,4.1813V233.7c0,2.7875-2.7875,4.1813-4.1812,4.1813h-55.75c-2.7875,0-4.1813-2.7875-4.1813-4.1813v-1.3937C215.5813,230.9125,218.3688,228.125,221.1563,228.125Z" transform="translate(-33 -33)"/><path class="cls-6" d="M256,335.4438A79.4064,79.4064,0,0,1,176.5563,256c0-44.6,34.8437-79.4437,79.4437-79.4437,23.6938,0,44.6,9.7562,59.9312,27.875,1.3938,1.3937,2.7876,4.1812,4.1813,5.5749,1.3937,2.7875,1.3937,5.575-1.3938,6.9688s-5.575,1.3938-6.9687-1.3938c-1.3938-1.3937-2.7875-4.1812-4.1813-5.575-12.5437-15.3312-32.0562-23.6937-52.9625-23.6937a68.2938,68.2938,0,0,0,0,136.5875c29.2688,0,55.75-18.1187,65.5063-45.9937,0-1.3938,1.3937-4.1813,1.3937-5.575,0-2.7876,2.7875-4.1813,5.575-4.1813s4.1813,2.7875,4.1813,5.575-1.3938,4.1813-1.3938,6.9688A77.3544,77.3544,0,0,1,256,335.4438Z" transform="translate(-33 -33)"/><path class="cls-7" d="M258.7875,297.8125a23.5466,23.5466,0,0,1-13.9375-4.1812c-5.575-4.1813-9.7562-9.7563-11.15-16.725V218.3688a5.575,5.575,0,1,1,11.15,0v55.75c1.3938,4.1812,4.1813,6.9687,6.9687,9.7562a18.9322,18.9322,0,0,0,22.3-2.7875,4.9277,4.9277,0,0,1,6.9688,6.9688A31.9184,31.9184,0,0,1,258.7875,297.8125Z" transform="translate(-33 -33)"/><path class="cls-8" d="M388.4063,256c1.3937,39.025-22.3,75.2625-22.3,75.2625l-83.625,146.3437c80.8376-16.725,143.5563-91.9875,143.5563-177.0062,0-65.5062-40.4187-122.65-93.3812-153.3125h0C366.1062,170.9812,387.0125,211.4,388.4063,256Z" transform="translate(-33 -33)"/><path class="cls-9" d="M189.1,371.6812c-19.5125-11.15-33.45-26.4812-44.6-43.2062v-1.3937c-1.3937-2.7876-5.575-6.9688-6.9687-9.7563L51.1187,166.8C26.0313,244.85,58.0875,338.2312,133.35,381.4375c57.1437,32.0562,126.8312,26.4812,179.7937-4.1812h0C274.1187,393.9812,228.125,393.9812,189.1,371.6812Z" transform="translate(-33 -33)"/><path class="cls-10" d="M187.7063,141.7125C222.55,119.4125,261.575,122.2,261.575,122.2H434.4C380.0437,62.2687,283.875,42.7562,210.0062,85.9625c-57.1437,33.45-85.0187,96.1687-85.0187,157.4938h0C126.3812,201.6438,152.8625,164.0125,187.7063,141.7125Z" transform="translate(-33 -33)"/><path class="cls-11" d="M487.875,217.397h67.3184v4.9043H524.5811v99.12h-5.35v-99.12H487.875Z" transform="translate(-33 -33)"/><path class="cls-11" d="M606.7607,282.9316c0,24.9659-1.9326,39.8272-27.6406,39.8272S551.48,307.8975,551.48,282.9316s5.6465-37.1508,27.6406-37.1508S606.7607,257.9668,606.7607,282.9316Zm-5.35,0c0-23.1816-4.7558-32.3955-22.291-32.3955s-22.291,9.2139-22.291,32.3955c0,22.1426.8916,35.0713,22.291,35.0713S601.4111,305.0742,601.4111,282.9316Z" transform="translate(-33 -33)"/><path class="cls-11" d="M670.959,321.4209V276.9883c0-17.833-5.4981-26.4522-16.1973-26.4522-11.1455,0-23.331,17.2383-23.331,17.2383v53.6465H626.23V247.1182h5.2012v13.82s11.2939-15.1577,23.6279-15.1577c15.6035,0,19.0215,14.2661,19.0215,14.2661s10.1054-14.2661,23.331-14.2661c15.1582,0,21.8448,9.6591,21.8448,30.6128v45.0273h-5.2012V276.9883c0-17.6846-4.7549-26.4522-16.94-26.4522-11.8887,0-21.5479,14.1172-21.5479,14.1172a104.8,104.8,0,0,1,.5938,11.74v45.0273Z" transform="translate(-33 -33)"/><path class="cls-11" d="M793.4131,282.9316c0,24.9659-1.9326,39.8272-27.6406,39.8272s-27.6407-14.8613-27.6407-39.8272,5.6465-37.1508,27.6407-37.1508S793.4131,257.9668,793.4131,282.9316Zm-5.35,0c0-23.1816-4.7559-32.3955-22.291-32.3955s-22.2911,9.2139-22.2911,32.3955c0,22.1426.8916,35.0713,22.2911,35.0713S788.0635,305.0742,788.0635,282.9316Z" transform="translate(-33 -33)"/><path class="cls-11" d="M814.5166,217.397h10.6992l33.7334,96,33.7334-96h10.6992V321.4209h-5.35v-99.12h-1.6347L862.3672,318.3h-6.8359l-34.03-95.9985h-1.6348v99.12h-5.35Z" transform="translate(-33 -33)"/><path class="cls-11" d="M924.3379,286.2012c0-24.668,5.6465-40.42,29.4238-40.42,6.6865,0,22.7363,2.3779,22.7363,2.3779v56.9155a153.5,153.5,0,0,0,.8916,16.3467l-5.35.2969s-.7431-8.1729-.7431-15.1573c0,0-9.3623,16.1983-24.2227,16.1983C929.8359,322.7588,924.3379,309.83,924.3379,286.2012Zm5.498,0c0,18.7246,3.418,31.8017,17.833,31.8017,13.6709,0,23.628-19.0215,23.628-19.0215V252.3193s-12.0371-1.7832-16.4951-1.7832C933.9971,250.5361,929.8359,263.3164,929.8359,286.2012Z" transform="translate(-33 -33)"/><path class="cls-11" d="M1040.8457,252.022s-13.5234-1.4859-23.1826-1.4859c-8.916,0-17.5352,3.8638-17.5352,15.0088,0,10.4024,6.6866,12.78,18.7237,14.8614,14.5634,2.5253,24.6689,4.6064,24.6689,19.4667,0,17.6846-9.957,22.8858-25.8574,22.8858-7.876,0-22.4395-2.23-22.4395-2.23l.5948-4.9043s14.5625,2.3779,21.6962,2.3779c13.2256,0,20.6563-3.8633,20.6563-17.6836,0-11.74-9.0654-12.9287-20.6563-15.01-12.6318-2.2285-22.7373-5.0528-22.7373-19.4668,0-15.4551,11.5918-20.062,22.8858-20.062a233.2975,233.2975,0,0,1,23.4795,1.4858Z" transform="translate(-33 -33)"/><path class="cls-11" d="M1061.3535,321.4209V212.939h5.2012v65.5346H1078.74l25.709-31.3554h6.39l-27.4922,33.5849,27.789,40.7178h-6.2412L1078.74,283.23h-12.1855v38.1914Z" transform="translate(-33 -33)"/></svg>