<?xml version="1.0" encoding="utf-8"?>
<!-- Generator: Adobe Illustrator 22.0.0, SVG Export Plug-In . SVG Version: 6.00 Build 0)  -->
<svg version="1.1" id="Layer_1" xmlns="http://www.w3.org/2000/svg" xmlns:xlink="http://www.w3.org/1999/xlink" x="0px" y="0px"
	 viewBox="0 0 1050 1044" style="enable-background:new 0 0 1050 1044;" xml:space="preserve">
<style type="text/css">
	
		.st0{display:none;opacity:0.29;fill:none;stroke:#6868D5;stroke-width:2;stroke-linecap:round;stroke-linejoin:round;stroke-miterlimit:10;stroke-dasharray:12;}
	.st1{opacity:0.17;}
	.st2{fill:none;stroke:#6868D5;stroke-width:2;stroke-linecap:round;stroke-linejoin:round;}
	.st3{fill:none;stroke:#6868D5;stroke-width:2;stroke-linecap:round;stroke-linejoin:round;stroke-dasharray:12.0355,12.0355;}
	.st4{fill:url(#SVGID_1_);}
	.st5{fill:url(#SVGID_2_);}
	.st6{display:none;fill:url(#SVGID_3_);}
	.st7{fill:url(#SVGID_4_);}
	.st8{fill:#282840;}
	.st9{fill:#4D6FFF;}
	.st10{fill:url(#SVGID_5_);}
	.st11{fill:url(#SVGID_6_);}
	.st12{fill:url(#SVGID_7_);}
	.st13{fill:url(#SVGID_8_);}
	.st14{fill:url(#SVGID_9_);}
	.st15{fill:#454195;}
	.st16{fill:#2A294F;}
	.st17{fill:#310381;}
	.st18{fill:url(#SVGID_10_);}
	.st19{fill:#56B4DA;}
	.st20{fill:url(#SVGID_11_);}
	.st21{fill:url(#SVGID_12_);}
	.st22{opacity:0.57;fill:url(#SVGID_13_);}
	.st23{opacity:0.2;fill:url(#SVGID_14_);enable-background:new    ;}
	.st24{fill:url(#SVGID_15_);}
	.st25{fill:url(#SVGID_16_);}
	.st26{fill:url(#SVGID_17_);}
	.st27{fill:url(#SVGID_18_);}
	.st28{fill:url(#SVGID_19_);}
	.st29{fill:url(#SVGID_20_);}
	.st30{fill:url(#SVGID_21_);}
	.st31{opacity:0.2;fill:url(#SVGID_22_);enable-background:new    ;}
	.st32{fill:url(#SVGID_23_);}
	.st33{fill:url(#SVGID_24_);}
	.st34{fill:url(#SVGID_25_);}
	.st35{fill:url(#SVGID_26_);}
	.st36{fill:url(#SVGID_27_);}
	.st37{fill:url(#SVGID_28_);}
	.st38{fill:url(#SVGID_29_);}
	.st39{opacity:0.2;fill:url(#SVGID_30_);enable-background:new    ;}
	.st40{fill:url(#SVGID_31_);}
	.st41{fill:url(#SVGID_32_);}
	.st42{fill:url(#SVGID_33_);}
	.st43{fill:url(#SVGID_34_);}
	.st44{fill:url(#SVGID_35_);}
	.st45{fill:url(#SVGID_36_);}
	.st46{fill:url(#SVGID_37_);}
	.st47{fill:url(#SVGID_38_);}
	.st48{opacity:0.35;}
	.st49{fill:#006838;}
	.st50{fill:#F1F2F2;}
	.st51{opacity:0.15;fill:#006838;}
	.st52{fill:url(#SVGID_39_);}
	.st53{fill:url(#SVGID_40_);}
	.st54{fill:url(#SVGID_41_);}
	.st55{opacity:0.32;}
	.st56{fill:#D4E1F4;}
	.st57{fill:#FFFFFF;}
	.st58{fill:url(#SVGID_42_);}
	.st59{opacity:0.39;}
	.st60{fill:#BD71FF;}
	.st61{fill:#0635C9;}
	.st62{fill:none;stroke:#0635C9;stroke-width:2.45;stroke-linecap:round;stroke-linejoin:round;stroke-miterlimit:10;}
	.st63{opacity:0.18;fill:#0013A0;}
	.st64{fill:#F9FBFC;}
	.st65{fill:#34227A;}
	.st66{fill:url(#SVGID_43_);}
	.st67{fill:url(#SVGID_44_);}
	.st68{fill:none;stroke:#0635C9;stroke-width:3;stroke-linecap:round;stroke-linejoin:round;stroke-miterlimit:10;}
</style>
<circle class="st0" cx="524.5" cy="504.1" r="259.1"/>
<circle class="st0" cx="524.5" cy="504.1" r="517.1"/>
<circle class="st0" cx="524.5" cy="504.1" r="445"/>
<g class="st1">
	<g>
		<path class="st2" d="M997,782.3c0.6,1.9,1.3,3.8,1.8,5.7"/>
		<path class="st3" d="M1002.2,799.6c66.4,238.4-237,171.5-354.2,52.7c-81.4-82.4-77.6-196.6-234-347.3
			c-32.2-31-233.2-229.9-337.7-179.6C-3.5,363.8,27.7,551.5,72,652.7c63.8,145.7,200.6,259.4,341.9,196.6
			C626.1,755,640.4,352.2,844,301c51.7-13,99.5,34.7,117.7,67.7c30.5,55.3-52.2,200.2-146.6,297.6c-76,78.4-198.1,117.5-355.1,223.9
			"/>
		<path class="st2" d="M454.9,893.6c-1.6,1.1-3.3,2.3-4.9,3.4"/>
	</g>
</g>
<g>
	<g>
		
			<linearGradient id="SVGID_1_" gradientUnits="userSpaceOnUse" x1="-243.0127" y1="1.3849" x2="-243.0127" y2="2.3848" gradientTransform="matrix(500.6992 0 0 492.4805 122231.6094 -219.015)">
			<stop  offset="0" style="stop-color:#4234F8"/>
			<stop  offset="1" style="stop-color:#4234F8;stop-opacity:0"/>
		</linearGradient>
		<path class="st4" d="M504,861c43.4,272.8,501.6-124.5,199-199s-89.1-199-199-199s-199,89.1-199,199S460.6,588.2,504,861z"/>
	</g>
	
		<radialGradient id="SVGID_2_" cx="-242.9653" cy="2.4511" r="0.6082" gradientTransform="matrix(344 0 0 344 84220 -430)" gradientUnits="userSpaceOnUse">
		<stop  offset="0" style="stop-color:#4234F8;stop-opacity:0"/>
		<stop  offset="0.5171" style="stop-color:#4234F8;stop-opacity:0.64"/>
		<stop  offset="1" style="stop-color:#4234F8;stop-opacity:0"/>
	</radialGradient>
	<circle class="st5" cx="700" cy="425.7" r="172"/>
	
		<linearGradient id="SVGID_3_" gradientUnits="userSpaceOnUse" x1="157" y1="564.4291" x2="157" y2="330.4663" gradientTransform="matrix(1 0 0 -1 0 1046)">
		<stop  offset="0" style="stop-color:#4234F8"/>
		<stop  offset="1" style="stop-color:#4234F8;stop-opacity:0"/>
	</linearGradient>
	<polygon class="st6" points="284,562 224.2,561 224.2,522 30,522 30,694.3 224.2,694.3 224.2,606.9 	"/>
</g>
<g>
	
		<linearGradient id="SVGID_4_" gradientUnits="userSpaceOnUse" x1="38.6637" y1="655.8193" x2="40.5745" y2="689.7551" gradientTransform="matrix(0.5232 0.8522 0.8522 -0.5232 -431.0259 755.7049)">
		<stop  offset="0" style="stop-color:#009A93"/>
		<stop  offset="1" style="stop-color:#29FD88"/>
	</linearGradient>
	<polygon class="st7" points="142.8,430.8 143.8,467.7 175.3,448.4 174.2,411.6 	"/>
	<polygon class="st8" points="175.3,448.4 207.6,466 176.2,485.3 143.8,467.7 	"/>
	<polygon class="st9" points="174.2,411.5 206.7,429.1 207.6,466 175.3,448.3 	"/>
	
		<linearGradient id="SVGID_5_" gradientUnits="userSpaceOnUse" x1="39.256" y1="696.0116" x2="71.1738" y2="696.0116" gradientTransform="matrix(0.5232 0.8522 0.8522 -0.5232 -431.0259 755.7049)">
		<stop  offset="0" style="stop-color:#009A93"/>
		<stop  offset="1" style="stop-color:#29FD88"/>
	</linearGradient>
	<polygon class="st10" points="182.5,425.1 183.2,443.5 199.2,452.3 198.8,433.7 	"/>
	<polygon class="st8" points="198.7,433.7 183.1,443.3 182.4,424.9 	"/>
	<polygon class="st9" points="166.7,425.7 167.4,443.7 151.4,453.6 150.7,435 	"/>
	<polygon class="st8" points="150.7,434.9 167.4,443.7 166.7,425.6 	"/>
	
		<linearGradient id="SVGID_6_" gradientUnits="userSpaceOnUse" x1="63.3115" y1="668.3034" x2="79.3622" y2="668.3034" gradientTransform="matrix(0.5232 0.8522 0.8522 -0.5232 -431.0259 755.7049)">
		<stop  offset="0" style="stop-color:#009A93"/>
		<stop  offset="1" style="stop-color:#29FD88"/>
	</linearGradient>
	<polygon class="st11" points="175.4,457.6 191.8,466.4 176,476.1 159.8,467.2 	"/>
	<polygon class="st9" points="176,476.1 175.4,457.6 159.8,467.2 	"/>
</g>
<g>
	
		<linearGradient id="SVGID_7_" gradientUnits="userSpaceOnUse" x1="-228.0999" y1="1188.3805" x2="-226.638" y2="1214.3433" gradientTransform="matrix(0.4125 -0.9109 -0.9109 -0.4125 2142.3025 673.6276)">
		<stop  offset="0.1241" style="stop-color:#7562FF"/>
		<stop  offset="0.3903" style="stop-color:#8473FF"/>
		<stop  offset="0.7048" style="stop-color:#8F80FF"/>
		<stop  offset="1" style="stop-color:#9384FF"/>
	</linearGradient>
	<polygon class="st12" points="958.7,400.9 981.6,384.4 955.8,372.8 933,389.2 	"/>
	<linearGradient id="SVGID_8_" gradientUnits="userSpaceOnUse" x1="953.1" y1="364.55" x2="981.6" y2="364.55">
		<stop  offset="0.1241" style="stop-color:#7562FF"/>
		<stop  offset="0.3903" style="stop-color:#8473FF"/>
		<stop  offset="0.7048" style="stop-color:#8F80FF"/>
		<stop  offset="1" style="stop-color:#9384FF"/>
	</linearGradient>
	<polygon class="st13" points="955.8,372.8 953.1,344.7 978.8,356.3 981.6,384.4 	"/>
	<linearGradient id="SVGID_9_" gradientUnits="userSpaceOnUse" x1="930.2" y1="367.05" x2="955.8" y2="367.05">
		<stop  offset="0" style="stop-color:#6152F5"/>
		<stop  offset="1" style="stop-color:#66A6FC"/>
	</linearGradient>
	<polygon class="st14" points="933,389.3 930.2,361.2 953.1,344.8 955.8,372.8 	"/>
	<polygon class="st15" points="938,378.2 949.3,369.9 948.1,355.9 936.5,364.2 	"/>
	<polygon class="st16" points="936.5,364.3 949.3,370 937.9,378.4 	"/>
	<polygon class="st17" points="945.1,387.9 956.3,379.8 969.4,385.7 957.9,394.1 	"/>
	<polygon class="st16" points="957.9,394.1 956.3,379.8 945.1,388 	"/>
	<polygon class="st15" points="961.7,368.7 960.2,354.6 973.1,360.4 974.4,374.5 	"/>
	<polygon class="st17" points="973.1,360.4 961.7,368.7 974.4,374.5 	"/>
</g>
<g>
	
		<linearGradient id="SVGID_10_" gradientUnits="userSpaceOnUse" x1="-939.71" y1="1706.2267" x2="-938.7052" y2="1724.0729" gradientTransform="matrix(0.4125 -0.9109 -0.9109 -0.4125 2142.3025 673.6276)">
		<stop  offset="0" style="stop-color:#FABE78"/>
		<stop  offset="1" style="stop-color:#D279AF"/>
	</linearGradient>
	<polygon class="st18" points="195.6,832.4 211.4,821.1 193.7,813.1 177.9,824.4 	"/>
	<polygon class="st8" points="193.7,813.1 191.8,793.8 209.5,801.8 211.4,821.1 	"/>
	<polygon class="st19" points="177.9,824.5 176,805.1 191.8,793.9 193.6,813.1 	"/>
	
		<linearGradient id="SVGID_11_" gradientUnits="userSpaceOnUse" x1="-939.4115" y1="1727.3672" x2="-922.6267" y2="1727.3672" gradientTransform="matrix(0.4125 -0.9109 -0.9109 -0.4125 2142.3025 673.6276)">
		<stop  offset="0" style="stop-color:#FABE78"/>
		<stop  offset="1" style="stop-color:#D279AF"/>
	</linearGradient>
	<polygon class="st20" points="181.4,816.8 189.2,811.1 188.3,801.5 180.4,807.2 	"/>
	<polygon class="st8" points="180.3,807.3 189.1,811.2 181.3,817 	"/>
	<polygon class="st19" points="186.3,823.5 194,817.9 203,822 195.1,827.8 	"/>
	<polygon class="st8" points="195,827.8 193.9,817.9 186.3,823.6 	"/>
	
		<linearGradient id="SVGID_12_" gradientUnits="userSpaceOnUse" x1="-926.7612" y1="1712.8093" x2="-918.3205" y2="1712.8093" gradientTransform="matrix(0.4125 -0.9109 -0.9109 -0.4125 2142.3025 673.6276)">
		<stop  offset="0" style="stop-color:#FABE78"/>
		<stop  offset="1" style="stop-color:#D279AF"/>
	</linearGradient>
	<polygon class="st21" points="197.7,810.3 196.7,800.6 205.5,804.6 206.4,814.3 	"/>
	<polygon class="st19" points="205.5,804.6 197.7,810.3 206.4,814.3 	"/>
</g>
<radialGradient id="SVGID_13_" cx="-243.9269" cy="3.2972" r="0.812" gradientTransform="matrix(192.4123 285.1552 -285.1552 192.4123 48158.5781 69580.5938)" gradientUnits="userSpaceOnUse">
	<stop  offset="0" style="stop-color:#E94E00;stop-opacity:0"/>
	<stop  offset="0.5171" style="stop-color:#A934F8;stop-opacity:0.64"/>
	<stop  offset="1" style="stop-color:#AA3A47;stop-opacity:0"/>
</radialGradient>
<circle class="st22" cx="314.8" cy="733.8" r="229.6"/>
<g>
	
		<linearGradient id="SVGID_14_" gradientUnits="userSpaceOnUse" x1="985.7909" y1="237.899" x2="986.9551" y2="301.5638" gradientTransform="matrix(1 0 0 -1 0 1046)">
		<stop  offset="0" style="stop-color:#ED695C"/>
		<stop  offset="0.51" style="stop-color:#F3967C"/>
		<stop  offset="1" style="stop-color:#F8BE98"/>
	</linearGradient>
	<path class="st23" d="M1016.7,759.3c-0.6-1.3-1.6-2.3-2.8-3L990,742.5c-2.2-1.3-4.9-1.3-7.2,0l-23.9,13.8c-0.8,0.5-1.5,1.1-2.1,1.8
		c-0.3,0.4-0.6,0.8-0.8,1.2c-0.5,1-0.7,2.1-0.7,3.1V790c0,2.6,1.4,4.9,3.6,6.2l23.9,13.8c2.2,1.3,5,1.3,7.2,0l23.9-13.8
		c2.2-1.3,3.6-3.6,3.6-6.2v-27.6C1017.4,761.4,1017.1,760.3,1016.7,759.3z"/>
	
		<linearGradient id="SVGID_15_" gradientUnits="userSpaceOnUse" x1="986.5855" y1="255.2964" x2="1003.2733" y2="269.1382" gradientTransform="matrix(1 0 0 -1 0 1046)">
		<stop  offset="0" style="stop-color:#ED695C"/>
		<stop  offset="0.51" style="stop-color:#F3967C"/>
		<stop  offset="1" style="stop-color:#F8BE98"/>
	</linearGradient>
	<path class="st24" d="M1007,764.7l-20.7,11.6v23.7c0.9,0,1.7-0.2,2.4-0.6l16.3-9.4c1.5-0.9,2.4-2.5,2.4-4.2v-18.8
		C1007.5,766.1,1007.4,765.4,1007,764.7z"/>
	
		<linearGradient id="SVGID_16_" gradientUnits="userSpaceOnUse" x1="4848.8716" y1="-1632.037" x2="4847.7075" y2="-1593.0253" gradientTransform="matrix(6.123234e-17 1 1 -6.123234e-17 2597.6201 -4083.8501)">
		<stop  offset="0" style="stop-color:#ED695C"/>
		<stop  offset="0.51" style="stop-color:#F3967C"/>
		<stop  offset="1" style="stop-color:#F8BE98"/>
	</linearGradient>
	<path class="st25" d="M1007,764.7c-0.4-0.9-1.1-1.6-1.9-2.1l-16.3-9.4c-1.5-0.9-3.4-0.9-4.9,0l-16.3,9.4c-0.6,0.3-1,0.8-1.4,1.3
		l20.1,12.3L1007,764.7z"/>
	
		<linearGradient id="SVGID_17_" gradientUnits="userSpaceOnUse" x1="986.6319" y1="271.3852" x2="986.6319" y2="291.1222" gradientTransform="matrix(1 0 0 -1 0 1046)">
		<stop  offset="0" style="stop-color:#ED695C"/>
		<stop  offset="0.51" style="stop-color:#F3967C"/>
		<stop  offset="1" style="stop-color:#F8BE98"/>
	</linearGradient>
	<path class="st26" d="M1007,764.7c-0.4-0.9-1.1-1.6-1.9-2.1l-16.3-9.4c-1.5-0.9-3.4-0.9-4.9,0l-16.3,9.4c-0.6,0.3-1,0.8-1.4,1.3
		l20.1,12.3L1007,764.7z"/>
	
		<linearGradient id="SVGID_18_" gradientUnits="userSpaceOnUse" x1="4866.4634" y1="-1631.519" x2="4865.3179" y2="-1592.5073" gradientTransform="matrix(6.123234e-17 1 1 -6.123234e-17 2597.6201 -4083.8501)">
		<stop  offset="0" style="stop-color:#ED695C"/>
		<stop  offset="0.51" style="stop-color:#F3967C"/>
		<stop  offset="1" style="stop-color:#F8BE98"/>
	</linearGradient>
	<path class="st27" d="M965.7,764.7c-0.3,0.7-0.5,1.4-0.5,2.1v18.8c0,1.8,0.9,3.4,2.4,4.3l16.3,9.4c0.7,0.4,1.6,0.6,2.4,0.6v-23.7
		L965.7,764.7z"/>
	
		<linearGradient id="SVGID_19_" gradientUnits="userSpaceOnUse" x1="4854.228" y1="-1631.8711" x2="4853.082" y2="-1592.8774" gradientTransform="matrix(6.123234e-17 1 1 -6.123234e-17 2597.6201 -4083.8501)">
		<stop  offset="0" style="stop-color:#ED695C"/>
		<stop  offset="0.51" style="stop-color:#F3967C"/>
		<stop  offset="1" style="stop-color:#F8BE98"/>
	</linearGradient>
	<path class="st28" d="M986.4,776.2l-20.2-12.3c-0.2,0.2-0.4,0.5-0.5,0.8L986.4,776.2z"/>
	
		<linearGradient id="SVGID_20_" gradientUnits="userSpaceOnUse" x1="976.015" y1="271.3852" x2="976.015" y2="291.1222" gradientTransform="matrix(1 0 0 -1 0 1046)">
		<stop  offset="0" style="stop-color:#ED695C"/>
		<stop  offset="0.51" style="stop-color:#F3967C"/>
		<stop  offset="1" style="stop-color:#F8BE98"/>
	</linearGradient>
	<path class="st29" d="M986.4,776.2l-20.2-12.3c-0.2,0.2-0.4,0.5-0.5,0.8L986.4,776.2z"/>
	
		<linearGradient id="SVGID_21_" gradientUnits="userSpaceOnUse" x1="986.0349" y1="250.7059" x2="970.3636" y2="271.3484" gradientTransform="matrix(1 0 0 -1 0 1046)">
		<stop  offset="0" style="stop-color:#ED695C"/>
		<stop  offset="0.51" style="stop-color:#F3967C"/>
		<stop  offset="1" style="stop-color:#F8BE98"/>
	</linearGradient>
	<path class="st30" d="M966.2,763.9c-0.2,0.2-0.4,0.5-0.5,0.8c-0.3,0.7-0.5,1.4-0.5,2.1v18.8c0,1.8,1,3.4,2.5,4.3l16.3,9.4
		c0.7,0.4,1.6,0.6,2.4,0.6v-23.7L966.2,763.9z"/>
</g>
<g>
	
		<linearGradient id="SVGID_22_" gradientUnits="userSpaceOnUse" x1="53.0553" y1="427.5742" x2="54.0737" y2="483.5836" gradientTransform="matrix(1 0 0 -1 0 1046)">
		<stop  offset="0" style="stop-color:#23B99D"/>
		<stop  offset="2.000000e-02" style="stop-color:#26BA9C"/>
		<stop  offset="0.69" style="stop-color:#8AE583"/>
		<stop  offset="1" style="stop-color:#B2F679"/>
	</linearGradient>
	<path class="st31" d="M80.3,575.5c-0.6-1.1-1.4-2.1-2.5-2.7l-21-12.1c-1.9-1.1-4.4-1.1-6.3,0l-21,12.1c-1.1,0.6-2,1.6-2.5,2.7
		c-0.4,0.9-0.7,1.8-0.6,2.8v24.3c0,2.2,1.2,4.3,3.1,5.4l21,12.1c2,1.1,4.3,1.1,6.3,0l21-12.1c2-1.1,3.2-3.2,3.2-5.4v-24.3
		C80.9,577.3,80.7,576.4,80.3,575.5z"/>
	
		<linearGradient id="SVGID_23_" gradientUnits="userSpaceOnUse" x1="53.8088" y1="442.8677" x2="68.4858" y2="455.0497" gradientTransform="matrix(1 0 0 -1 0 1046)">
		<stop  offset="0" style="stop-color:#23B99D"/>
		<stop  offset="2.000000e-02" style="stop-color:#26BA9C"/>
		<stop  offset="0.69" style="stop-color:#8AE583"/>
		<stop  offset="1" style="stop-color:#B2F679"/>
	</linearGradient>
	<path class="st32" d="M71.8,580.2l-18.2,10.2v20.8c0.8,0,1.5-0.2,2.2-0.6l14.3-8.3c1.3-0.8,2.2-2.2,2.2-3.7v-16.5
		C72.2,581.5,72.1,580.8,71.8,580.2z"/>
	
		<linearGradient id="SVGID_24_" gradientUnits="userSpaceOnUse" x1="4664.3643" y1="-2562.3101" x2="4663.3589" y2="-2527.9917" gradientTransform="matrix(6.123234e-17 1 1 -6.123234e-17 2597.6201 -4083.8501)">
		<stop  offset="0" style="stop-color:#23B99D"/>
		<stop  offset="2.000000e-02" style="stop-color:#26BA9C"/>
		<stop  offset="0.69" style="stop-color:#8AE583"/>
		<stop  offset="1" style="stop-color:#B2F679"/>
	</linearGradient>
	<path class="st33" d="M71.8,580.2c-0.4-0.8-1-1.4-1.7-1.8l-14.3-8.3c-1.3-0.8-3-0.8-4.3,0l-14.3,8.3c-0.5,0.3-0.9,0.7-1.3,1.1
		l17.7,10.9L71.8,580.2z"/>
	
		<linearGradient id="SVGID_25_" gradientUnits="userSpaceOnUse" x1="53.8247" y1="457.0419" x2="53.8247" y2="474.4048" gradientTransform="matrix(1 0 0 -1 0 1046)">
		<stop  offset="0" style="stop-color:#23B99D"/>
		<stop  offset="2.000000e-02" style="stop-color:#26BA9C"/>
		<stop  offset="0.69" style="stop-color:#8AE583"/>
		<stop  offset="1" style="stop-color:#B2F679"/>
	</linearGradient>
	<path class="st34" d="M71.8,580.2c-0.4-0.8-1-1.4-1.7-1.8l-14.3-8.3c-1.3-0.8-3-0.8-4.3,0l-14.3,8.3c-0.5,0.3-0.9,0.7-1.3,1.1
		l17.7,10.9L71.8,580.2z"/>
	
		<linearGradient id="SVGID_26_" gradientUnits="userSpaceOnUse" x1="4679.8462" y1="-2561.8521" x2="4678.8281" y2="-2527.5334" gradientTransform="matrix(6.123234e-17 1 1 -6.123234e-17 2597.6201 -4083.8501)">
		<stop  offset="0" style="stop-color:#23B99D"/>
		<stop  offset="2.000000e-02" style="stop-color:#26BA9C"/>
		<stop  offset="0.69" style="stop-color:#8AE583"/>
		<stop  offset="1" style="stop-color:#B2F679"/>
	</linearGradient>
	<path class="st35" d="M35.4,580.2c-0.3,0.6-0.4,1.2-0.4,1.9v16.5c0,1.5,0.8,2.9,2.2,3.7l14.3,8.3c0.7,0.4,1.4,0.6,2.2,0.6v-20.8
		L35.4,580.2z"/>
	
		<linearGradient id="SVGID_27_" gradientUnits="userSpaceOnUse" x1="4669.0933" y1="-2562.1702" x2="4668.0752" y2="-2527.8516" gradientTransform="matrix(6.123234e-17 1 1 -6.123234e-17 2597.6201 -4083.8501)">
		<stop  offset="0" style="stop-color:#23B99D"/>
		<stop  offset="2.000000e-02" style="stop-color:#26BA9C"/>
		<stop  offset="0.69" style="stop-color:#8AE583"/>
		<stop  offset="1" style="stop-color:#B2F679"/>
	</linearGradient>
	<path class="st36" d="M53.6,590.4l-17.7-10.9c-0.2,0.2-0.3,0.5-0.4,0.7L53.6,590.4z"/>
	
		<linearGradient id="SVGID_28_" gradientUnits="userSpaceOnUse" x1="44.5259" y1="457.0419" x2="44.5259" y2="474.4048" gradientTransform="matrix(1 0 0 -1 0 1046)">
		<stop  offset="0" style="stop-color:#23B99D"/>
		<stop  offset="2.000000e-02" style="stop-color:#26BA9C"/>
		<stop  offset="0.69" style="stop-color:#8AE583"/>
		<stop  offset="1" style="stop-color:#B2F679"/>
	</linearGradient>
	<path class="st37" d="M53.6,590.4l-17.7-10.9c-0.2,0.2-0.3,0.5-0.4,0.7L53.6,590.4z"/>
	
		<linearGradient id="SVGID_29_" gradientUnits="userSpaceOnUse" x1="53.3338" y1="438.8606" x2="39.5479" y2="457.0382" gradientTransform="matrix(1 0 0 -1 0 1046)">
		<stop  offset="0" style="stop-color:#23B99D"/>
		<stop  offset="2.000000e-02" style="stop-color:#26BA9C"/>
		<stop  offset="0.69" style="stop-color:#8AE583"/>
		<stop  offset="1" style="stop-color:#B2F679"/>
	</linearGradient>
	<path class="st38" d="M35.9,579.5c-0.6,0.7-0.9,1.6-0.9,2.5v16.5c0,1.5,0.8,2.9,2.2,3.7l14.3,8.3c0.7,0.4,1.4,0.6,2.2,0.6v-20.8
		L35.9,579.5z"/>
</g>
<g>
	
		<linearGradient id="SVGID_30_" gradientUnits="userSpaceOnUse" x1="814.6906" y1="361.1994" x2="815.3699" y2="398.5642" gradientTransform="matrix(1 0 0 -1 0 1046)">
		<stop  offset="0" style="stop-color:#6152F5"/>
		<stop  offset="1" style="stop-color:#66A6FC"/>
	</linearGradient>
	<path class="st39" d="M832.8,656.2c-0.4-0.8-1-1.4-1.7-1.8l-14-8.1c-1.3-0.8-2.9-0.8-4.2,0l-14,8.1c-0.7,0.4-1.3,1-1.7,1.8
		c-0.3,0.6-0.4,1.2-0.4,1.8v16.2c0,1.5,0.8,2.9,2.1,3.6l14,8.1c1.3,0.7,2.9,0.7,4.2,0l14-8.1c1.3-0.7,2.1-2.1,2.1-3.6V658
		C833.3,657.4,833.1,656.7,832.8,656.2z"/>
	
		<linearGradient id="SVGID_31_" gradientUnits="userSpaceOnUse" x1="815.1932" y1="371.4019" x2="824.9845" y2="379.5287" gradientTransform="matrix(1 0 0 -1 0 1046)">
		<stop  offset="0" style="stop-color:#6152F5"/>
		<stop  offset="1" style="stop-color:#66A6FC"/>
	</linearGradient>
	<path class="st40" d="M827.2,659.3l-12.1,6.8V680c0.5,0,1-0.1,1.4-0.4l9.6-5.5c0.9-0.5,1.4-1.5,1.4-2.5v-11
		C827.5,660.1,827.4,659.7,827.2,659.3z"/>
	
		<linearGradient id="SVGID_32_" gradientUnits="userSpaceOnUse" x1="4743.3594" y1="-1794.7677" x2="4742.6885" y2="-1771.8733" gradientTransform="matrix(6.123234e-17 1 1 -6.123234e-17 2597.6201 -4083.8501)">
		<stop  offset="0" style="stop-color:#23B99D"/>
		<stop  offset="2.000000e-02" style="stop-color:#26BA9C"/>
		<stop  offset="0.69" style="stop-color:#8AE583"/>
		<stop  offset="1" style="stop-color:#B2F679"/>
	</linearGradient>
	<path class="st41" d="M827.2,659.3c-0.2-0.5-0.6-0.9-1.1-1.2l-9.6-5.5c-0.9-0.5-2-0.5-2.9,0l-9.6,5.5c-0.3,0.2-0.6,0.4-0.8,0.8
		l11.8,7.2L827.2,659.3z"/>
	
		<linearGradient id="SVGID_33_" gradientUnits="userSpaceOnUse" x1="815.2039" y1="380.8578" x2="815.2039" y2="392.4408" gradientTransform="matrix(1 0 0 -1 0 1046)">
		<stop  offset="0" style="stop-color:#6152F5"/>
		<stop  offset="1" style="stop-color:#66A6FC"/>
	</linearGradient>
	<path class="st42" d="M827.2,659.3c-0.2-0.5-0.6-0.9-1.1-1.2l-9.6-5.5c-0.9-0.5-2-0.5-2.9,0l-9.6,5.5c-0.3,0.2-0.6,0.4-0.8,0.8
		l11.8,7.2L827.2,659.3z"/>
	
		<linearGradient id="SVGID_34_" gradientUnits="userSpaceOnUse" x1="4753.6875" y1="-1794.462" x2="4753.0083" y2="-1771.5677" gradientTransform="matrix(6.123234e-17 1 1 -6.123234e-17 2597.6201 -4083.8501)">
		<stop  offset="0" style="stop-color:#23B99D"/>
		<stop  offset="2.000000e-02" style="stop-color:#26BA9C"/>
		<stop  offset="0.69" style="stop-color:#8AE583"/>
		<stop  offset="1" style="stop-color:#B2F679"/>
	</linearGradient>
	<path class="st43" d="M802.9,659.3c-0.2,0.4-0.3,0.8-0.3,1.3v11c0,1,0.6,2,1.4,2.5l9.6,5.5c0.4,0.3,0.9,0.4,1.4,0.4v-13.9
		L802.9,659.3z"/>
	
		<linearGradient id="SVGID_35_" gradientUnits="userSpaceOnUse" x1="4746.5142" y1="-1794.6743" x2="4745.835" y2="-1771.7799" gradientTransform="matrix(6.123234e-17 1 1 -6.123234e-17 2597.6201 -4083.8501)">
		<stop  offset="0" style="stop-color:#23B99D"/>
		<stop  offset="2.000000e-02" style="stop-color:#26BA9C"/>
		<stop  offset="0.69" style="stop-color:#8AE583"/>
		<stop  offset="1" style="stop-color:#B2F679"/>
	</linearGradient>
	<path class="st44" d="M815.1,666.1l-11.8-7.2c-0.1,0.1-0.2,0.3-0.3,0.5L815.1,666.1z"/>
	
		<linearGradient id="SVGID_36_" gradientUnits="userSpaceOnUse" x1="809.0005" y1="380.8578" x2="809.0005" y2="392.4408" gradientTransform="matrix(1 0 0 -1 0 1046)">
		<stop  offset="0" style="stop-color:#23B99D"/>
		<stop  offset="2.000000e-02" style="stop-color:#26BA9C"/>
		<stop  offset="0.69" style="stop-color:#8AE583"/>
		<stop  offset="1" style="stop-color:#B2F679"/>
	</linearGradient>
	<path class="st45" d="M815.1,666.1l-11.8-7.2c-0.1,0.1-0.2,0.3-0.3,0.5L815.1,666.1z"/>
	
		<linearGradient id="SVGID_37_" gradientUnits="userSpaceOnUse" x1="814.8764" y1="368.4825" x2="805.6796" y2="380.609" gradientTransform="matrix(1 0 0 -1 0 1046)">
		<stop  offset="0" style="stop-color:#6152F5"/>
		<stop  offset="1" style="stop-color:#66A6FC"/>
	</linearGradient>
	<path class="st46" d="M803.2,659.1c-0.4,0.5-0.6,1.1-0.6,1.7v11c0,1,0.6,2,1.4,2.5l9.6,5.5c0.4,0.3,0.9,0.4,1.4,0.4v-13.9
		L803.2,659.1z"/>
</g>
<linearGradient id="SVGID_38_" gradientUnits="userSpaceOnUse" x1="865.5467" y1="596.2279" x2="1014.0026" y2="596.2279">
	<stop  offset="0" style="stop-color:#23B99D"/>
	<stop  offset="2.000000e-02" style="stop-color:#26BA9C"/>
	<stop  offset="0.69" style="stop-color:#8AE583"/>
	<stop  offset="1" style="stop-color:#B2F679"/>
</linearGradient>
<circle class="st47" cx="939.8" cy="596.2" r="74.2"/>
<g class="st48">
	<path class="st49" d="M943.4,598c-0.8,0-1.4,0.6-1.4,1.4v7.8c0,0.8,0.6,1.4,1.4,1.4c0.8,0,1.4-0.6,1.4-1.4v-7.8
		C944.8,598.6,944.2,598,943.4,598z"/>
	<path class="st49" d="M943.4,592.2c-0.8,0-1.4,0.6-1.4,1.4v0.9c0,0.8,0.6,1.4,1.4,1.4c0.8,0,1.4-0.6,1.4-1.4v-0.9
		C944.8,592.8,944.2,592.2,943.4,592.2z"/>
	<path class="st49" d="M932.4,600c-0.8,0-1.4,0.6-1.4,1.4v3.5c0,0.8,0.6,1.4,1.4,1.4s1.4-0.6,1.4-1.4v-3.5
		C933.8,600.6,933.1,600,932.4,600z"/>
	<path class="st49" d="M932.4,590c-0.8,0-1.4,0.6-1.4,1.4v5.2c0,0.8,0.6,1.4,1.4,1.4s1.4-0.6,1.4-1.4v-5.2
		C933.8,590.6,933.1,590,932.4,590z"/>
	<path class="st49" d="M954.5,598.7c-0.8,0-1.4,0.6-1.4,1.4v7.9c0,0.8,0.6,1.4,1.4,1.4s1.4-0.6,1.4-1.4V600
		C955.9,599.3,955.3,598.7,954.5,598.7z"/>
	<path class="st49" d="M954.5,590c-0.8,0-1.4,0.6-1.4,1.4v3.1c0,0.8,0.6,1.4,1.4,1.4s1.4-0.6,1.4-1.4v-3.1
		C955.9,590.6,955.3,590,954.5,590z"/>
	<path class="st49" d="M965.6,591.9c-0.8,0-1.4,0.6-1.4,1.4v5.7c0,0.8,0.6,1.4,1.4,1.4c0.8,0,1.4-0.6,1.4-1.4v-5.7
		C966.9,592.5,966.3,591.9,965.6,591.9z"/>
	<path class="st49" d="M965.6,585.4c-0.8,0-1.4,0.6-1.4,1.4v2.2c0,0.8,0.6,1.4,1.4,1.4c0.8,0,1.4-0.6,1.4-1.4v-2.2
		C966.9,586,966.3,585.4,965.6,585.4z"/>
	<path class="st49" d="M921.3,593.7c-0.8,0-1.4,0.6-1.4,1.4v5.2c0,0.8,0.6,1.4,1.4,1.4c0.8,0,1.4-0.6,1.4-1.4v-5.2
		C922.7,594.3,922.1,593.7,921.3,593.7z"/>
	<path class="st49" d="M921.3,586.2c-0.8,0-1.4,0.6-1.4,1.4v3.4c0,0.8,0.6,1.4,1.4,1.4c0.8,0,1.4-0.6,1.4-1.4v-3.4
		C922.7,586.8,922.1,586.2,921.3,586.2z"/>
	<path class="st49" d="M944.1,544.5c-10.2,0-18.5,8.3-18.5,18.5c0,10.2,8.3,18.5,18.5,18.5c10.2,0,18.5-8.3,18.5-18.5
		C962.6,552.8,954.3,544.5,944.1,544.5z M944.1,578.7c-8.7,0-15.7-7-15.7-15.7c0-8.7,7-15.7,15.7-15.7c8.7,0,15.7,7,15.7,15.7
		C959.9,571.7,952.8,578.7,944.1,578.7z"/>
	<path class="st49" d="M962,545.1c0,0-0.1-0.1-0.1-0.1c-9.9-9.8-25.8-9.8-35.6,0c0,0-0.1,0.1-0.1,0.1c0,0-0.1,0.1-0.1,0.1
		c-9.8,9.9-9.8,25.8,0,35.6c0,0,0.1,0.1,0.1,0.1c0,0,0.1,0.1,0.1,0.1c9.9,9.8,25.8,9.8,35.6,0c0,0,0.1-0.1,0.1-0.1
		c0,0,0.1-0.1,0.1-0.1c9.8-9.9,9.8-25.8,0-35.6C962.1,545.2,962.1,545.1,962,545.1z M965.6,564.4h1.1c-0.3,5-2.3,9.8-5.6,13.6
		l-0.8-0.8c-0.5-0.5-1.4-0.5-1.9,0s-0.5,1.4,0,1.9l0.8,0.8c-3.8,3.4-8.6,5.3-13.6,5.6v-1.1c0-0.8-0.6-1.4-1.4-1.4
		c-0.8,0-1.4,0.6-1.4,1.4v1.1c-5-0.3-9.8-2.3-13.6-5.6l0.8-0.8c0.4-0.3,0.5-0.9,0.4-1.3c-0.1-0.5-0.5-0.9-1-1c-0.5-0.1-1,0-1.3,0.4
		l-0.8,0.8c-3.4-3.8-5.3-8.6-5.6-13.6h1.1c0.8,0,1.4-0.6,1.4-1.4c0-0.8-0.6-1.4-1.4-1.4h-1.1c0.3-5,2.3-9.8,5.6-13.6l0.8,0.8
		c0.3,0.4,0.9,0.5,1.3,0.4c0.5-0.1,0.8-0.5,1-1c0.1-0.5,0-1-0.4-1.3l-0.8-0.8c3.8-3.4,8.6-5.3,13.6-5.6v1.1c0,0.8,0.6,1.4,1.4,1.4
		c0.8,0,1.4-0.6,1.4-1.4v-1.1c5,0.3,9.8,2.3,13.6,5.6l-0.8,0.8c-0.4,0.3-0.5,0.9-0.4,1.3c0.1,0.5,0.5,0.9,1,1c0.5,0.1,1,0,1.3-0.4
		l0.8-0.8c3.4,3.8,5.3,8.6,5.6,13.6h-1.1c-0.8,0-1.4,0.6-1.4,1.4C964.2,563.7,964.9,564.4,965.6,564.4L965.6,564.4z"/>
	<g>
		<path class="st49" d="M937.5,557.9h10.6c0.3,0,0.6,0.3,0.6,0.6v0.7c0,0.3-0.3,0.6-0.6,0.6h-10.6c-0.3,0-0.6-0.3-0.6-0.6v-0.7
			C936.8,558.2,937.1,557.9,937.5,557.9z"/>
		<g>
			<path class="st49" d="M944.1,577.3c-7.9,0-14.3-6.4-14.3-14.3c0-7.9,6.4-14.3,14.3-14.3c4.2,0,8.2,1.9,10.9,5.1
				c0.3,0.4,0.6,0.7,0.9,1.1c0.3,0.4,0.2,1-0.2,1.3c-0.4,0.3-1,0.2-1.3-0.2c-0.2-0.3-0.5-0.7-0.7-1c-2.4-2.8-5.8-4.4-9.5-4.4
				c-6.8,0-12.4,5.6-12.4,12.4c0,6.8,5.6,12.4,12.4,12.4c5.3,0,10-3.4,11.8-8.4c0.1-0.4,0.2-0.7,0.3-1.1c0.1-0.5,0.6-0.8,1.1-0.7
				c0.5,0.1,0.8,0.6,0.7,1.1c-0.1,0.4-0.2,0.9-0.4,1.3C955.6,573.4,950.2,577.3,944.1,577.3z"/>
		</g>
		<g>
			<path class="st49" d="M944.6,570.5c-0.9,0-1.8-0.2-2.6-0.7c-1.1-0.7-1.9-1.7-2.1-3c-0.1-0.3-0.1-0.6-0.1-1l0-9.6
				c0-0.5,0.4-0.9,0.9-0.9c0.5,0,0.9,0.4,0.9,0.9v9.6c0,0.2,0,0.4,0.1,0.6c0.2,0.7,0.6,1.4,1.3,1.8c1.2,0.7,3.1,0.5,4-0.5
				c0.3-0.4,0.9-0.4,1.3-0.1c0.4,0.3,0.4,0.9,0.1,1.3C947.4,570,946,570.5,944.6,570.5z"/>
		</g>
	</g>
	<path class="st49" d="M985.8,559.1h-17.7v2.7h17.7c2.9,0,5.3,2.4,5.3,5.3v46.8h-93.9v-46.8c0-2.9,2.4-5.3,5.3-5.3h17.7v-2.7h-17.7
		c-4.4,0-8,3.6-8,8v54.2c0,4.4,3.6,8,8,8H930v16.4h-6.4c-0.8,0-1.4,0.6-1.4,1.4c0,0.8,0.6,1.4,1.4,1.4h42.2c0.8,0,1.4-0.6,1.4-1.4
		c0-0.8-0.6-1.4-1.4-1.4h-7.6v-16.4h27.5c4.4,0,8-3.6,8-8v-54.2C993.8,562.7,990.2,559.1,985.8,559.1z M955.5,645.7h-22.8v-16.4
		h22.8V645.7z M985.8,626.6h-83.2c-2.9,0-5.3-2.4-5.3-5.3v-4.7h93.9v4.7C991.1,624.2,988.7,626.6,985.8,626.6z"/>
</g>
<g>
	<path class="st50" d="M941.4,598c-0.8,0-1.4,0.6-1.4,1.4v7.8c0,0.8,0.6,1.4,1.4,1.4c0.8,0,1.4-0.6,1.4-1.4v-7.8
		C942.8,598.6,942.2,598,941.4,598z"/>
	<path class="st50" d="M941.4,592.2c-0.8,0-1.4,0.6-1.4,1.4v0.9c0,0.8,0.6,1.4,1.4,1.4c0.8,0,1.4-0.6,1.4-1.4v-0.9
		C942.8,592.8,942.2,592.2,941.4,592.2z"/>
	<path class="st50" d="M930.4,600c-0.8,0-1.4,0.6-1.4,1.4v3.5c0,0.8,0.6,1.4,1.4,1.4s1.4-0.6,1.4-1.4v-3.5
		C931.8,600.6,931.1,600,930.4,600z"/>
	<path class="st50" d="M930.4,590c-0.8,0-1.4,0.6-1.4,1.4v5.2c0,0.8,0.6,1.4,1.4,1.4s1.4-0.6,1.4-1.4v-5.2
		C931.8,590.6,931.1,590,930.4,590z"/>
	<path class="st50" d="M952.5,598.7c-0.8,0-1.4,0.6-1.4,1.4v7.9c0,0.8,0.6,1.4,1.4,1.4s1.4-0.6,1.4-1.4V600
		C953.9,599.3,953.3,598.7,952.5,598.7z"/>
	<path class="st50" d="M952.5,590c-0.8,0-1.4,0.6-1.4,1.4v3.1c0,0.8,0.6,1.4,1.4,1.4s1.4-0.6,1.4-1.4v-3.1
		C953.9,590.6,953.3,590,952.5,590z"/>
	<path class="st50" d="M963.6,591.9c-0.8,0-1.4,0.6-1.4,1.4v5.7c0,0.8,0.6,1.4,1.4,1.4c0.8,0,1.4-0.6,1.4-1.4v-5.7
		C964.9,592.5,964.3,591.9,963.6,591.9z"/>
	<path class="st50" d="M963.6,585.4c-0.8,0-1.4,0.6-1.4,1.4v2.2c0,0.8,0.6,1.4,1.4,1.4c0.8,0,1.4-0.6,1.4-1.4v-2.2
		C964.9,586,964.3,585.4,963.6,585.4z"/>
	<path class="st50" d="M919.3,593.7c-0.8,0-1.4,0.6-1.4,1.4v5.2c0,0.8,0.6,1.4,1.4,1.4c0.8,0,1.4-0.6,1.4-1.4v-5.2
		C920.7,594.3,920.1,593.7,919.3,593.7z"/>
	<path class="st50" d="M919.3,586.2c-0.8,0-1.4,0.6-1.4,1.4v3.4c0,0.8,0.6,1.4,1.4,1.4c0.8,0,1.4-0.6,1.4-1.4v-3.4
		C920.7,586.8,920.1,586.2,919.3,586.2z"/>
	<path class="st50" d="M942.1,544.5c-10.2,0-18.5,8.3-18.5,18.5c0,10.2,8.3,18.5,18.5,18.5c10.2,0,18.5-8.3,18.5-18.5
		C960.6,552.8,952.3,544.5,942.1,544.5z M942.1,578.7c-8.7,0-15.7-7-15.7-15.7c0-8.7,7-15.7,15.7-15.7c8.7,0,15.7,7,15.7,15.7
		C957.9,571.7,950.8,578.7,942.1,578.7z"/>
	<path class="st50" d="M960,545.1c0,0-0.1-0.1-0.1-0.1c-9.9-9.8-25.8-9.8-35.6,0c0,0-0.1,0.1-0.1,0.1c0,0-0.1,0.1-0.1,0.1
		c-9.8,9.9-9.8,25.8,0,35.6c0,0,0.1,0.1,0.1,0.1c0,0,0.1,0.1,0.1,0.1c9.9,9.8,25.8,9.8,35.6,0c0,0,0.1-0.1,0.1-0.1
		c0,0,0.1-0.1,0.1-0.1c9.8-9.9,9.8-25.8,0-35.6C960.1,545.2,960.1,545.1,960,545.1z M963.6,564.4h1.1c-0.3,5-2.3,9.8-5.6,13.6
		l-0.8-0.8c-0.5-0.5-1.4-0.5-1.9,0s-0.5,1.4,0,1.9l0.8,0.8c-3.8,3.4-8.6,5.3-13.6,5.6v-1.1c0-0.8-0.6-1.4-1.4-1.4
		c-0.8,0-1.4,0.6-1.4,1.4v1.1c-5-0.3-9.8-2.3-13.6-5.6l0.8-0.8c0.4-0.3,0.5-0.9,0.4-1.3c-0.1-0.5-0.5-0.9-1-1c-0.5-0.1-1,0-1.3,0.4
		l-0.8,0.8c-3.4-3.8-5.3-8.6-5.6-13.6h1.1c0.8,0,1.4-0.6,1.4-1.4c0-0.8-0.6-1.4-1.4-1.4h-1.1c0.3-5,2.3-9.8,5.6-13.6l0.8,0.8
		c0.3,0.4,0.9,0.5,1.3,0.4c0.5-0.1,0.8-0.5,1-1c0.1-0.5,0-1-0.4-1.3l-0.8-0.8c3.8-3.4,8.6-5.3,13.6-5.6v1.1c0,0.8,0.6,1.4,1.4,1.4
		c0.8,0,1.4-0.6,1.4-1.4v-1.1c5,0.3,9.8,2.3,13.6,5.6l-0.8,0.8c-0.4,0.3-0.5,0.9-0.4,1.3c0.1,0.5,0.5,0.9,1,1c0.5,0.1,1,0,1.3-0.4
		l0.8-0.8c3.4,3.8,5.3,8.6,5.6,13.6h-1.1c-0.8,0-1.4,0.6-1.4,1.4C962.2,563.7,962.9,564.4,963.6,564.4L963.6,564.4z"/>
	<g>
		<path class="st50" d="M935.5,557.9h10.6c0.3,0,0.6,0.3,0.6,0.6v0.7c0,0.3-0.3,0.6-0.6,0.6h-10.6c-0.3,0-0.6-0.3-0.6-0.6v-0.7
			C934.8,558.2,935.1,557.9,935.5,557.9z"/>
		<g>
			<path class="st50" d="M942.1,577.3c-7.9,0-14.3-6.4-14.3-14.3c0-7.9,6.4-14.3,14.3-14.3c4.2,0,8.2,1.9,10.9,5.1
				c0.3,0.4,0.6,0.7,0.9,1.1c0.3,0.4,0.2,1-0.2,1.3c-0.4,0.3-1,0.2-1.3-0.2c-0.2-0.3-0.5-0.7-0.7-1c-2.4-2.8-5.8-4.4-9.5-4.4
				c-6.8,0-12.4,5.6-12.4,12.4c0,6.8,5.6,12.4,12.4,12.4c5.3,0,10-3.4,11.8-8.4c0.1-0.4,0.2-0.7,0.3-1.1c0.1-0.5,0.6-0.8,1.1-0.7
				c0.5,0.1,0.8,0.6,0.7,1.1c-0.1,0.4-0.2,0.9-0.4,1.3C953.6,573.4,948.2,577.3,942.1,577.3z"/>
		</g>
		<g>
			<path class="st50" d="M942.6,570.5c-0.9,0-1.8-0.2-2.6-0.7c-1.1-0.7-1.9-1.7-2.1-3c-0.1-0.3-0.1-0.6-0.1-1l0-9.6
				c0-0.5,0.4-0.9,0.9-0.9c0.5,0,0.9,0.4,0.9,0.9v9.6c0,0.2,0,0.4,0.1,0.6c0.2,0.7,0.6,1.4,1.3,1.8c1.2,0.7,3.1,0.5,4-0.5
				c0.3-0.4,0.9-0.4,1.3-0.1c0.4,0.3,0.4,0.9,0.1,1.3C945.4,570,944,570.5,942.6,570.5z"/>
		</g>
	</g>
	<path class="st51" d="M901.8,618.9v-3.4h-7v3.4c0,4.1,3.3,7.6,7.4,7.6h7C905.1,626.5,901.8,623,901.8,618.9z"/>
	<path class="st50" d="M983.8,559.1h-17.7v2.7h17.7c2.9,0,5.3,2.4,5.3,5.3v46.8h-93.9v-46.8c0-2.9,2.4-5.3,5.3-5.3h17.7v-2.7h-17.7
		c-4.4,0-8,3.6-8,8v54.2c0,4.4,3.6,8,8,8H928v16.4h-6.4c-0.8,0-1.4,0.6-1.4,1.4c0,0.8,0.6,1.4,1.4,1.4h42.2c0.8,0,1.4-0.6,1.4-1.4
		c0-0.8-0.6-1.4-1.4-1.4h-7.6v-16.4h27.5c4.4,0,8-3.6,8-8v-54.2C991.8,562.7,988.2,559.1,983.8,559.1z M953.5,645.7h-22.8v-16.4
		h22.8V645.7z M983.8,626.6h-83.2c-2.9,0-5.3-2.4-5.3-5.3v-4.7h93.9v4.7C989.1,624.2,986.7,626.6,983.8,626.6z"/>
	<path class="st51" d="M909.2,558.7h-7c-2,0-3.9,0.8-5.3,2.2c-1.4,1.4-2.2,3.3-2.2,5.3v47h7v-47c0-2,0.8-3.9,2.2-5.3
		C905.3,559.4,907.2,558.7,909.2,558.7z"/>
</g>
<linearGradient id="SVGID_39_" gradientUnits="userSpaceOnUse" x1="53.5641" y1="963.4685" x2="126.6603" y2="963.4685">
	<stop  offset="0" style="stop-color:#ED695C"/>
	<stop  offset="0.51" style="stop-color:#F3967C"/>
	<stop  offset="1" style="stop-color:#F8BE98"/>
</linearGradient>
<circle class="st52" cx="90.1" cy="963.5" r="36.5"/>
<g>
	
		<linearGradient id="SVGID_40_" gradientUnits="userSpaceOnUse" x1="98.8291" y1="950.6147" x2="115.6892" y2="950.6147" gradientTransform="matrix(0.9281 -0.3723 0.3723 0.9281 -328.6617 107.3669)">
		<stop  offset="0" style="stop-color:#6152F5"/>
		<stop  offset="1" style="stop-color:#66A6FC"/>
	</linearGradient>
	<path class="st53" d="M132.6,949.4l-1.5-0.3c-0.2-0.1-0.4-0.2-0.5-0.5c0-0.2,0.1-0.5,0.3-0.6l1.3-0.9c0.2-0.1,0.3-0.3,0.4-0.5
		c0-0.2,0-0.5-0.1-0.6l-1.1-1.7c-0.3-0.4-0.8-0.5-1.2-0.3l-1.3,0.9c-0.2,0.1-0.5,0.1-0.7,0c-0.2-0.1-0.3-0.4-0.2-0.6l0.3-1.5
		c0.1-0.5-0.2-0.9-0.7-1l-2-0.4c-0.5-0.1-0.9,0.2-1,0.7l-0.3,1.5c-0.1,0.2-0.2,0.4-0.5,0.5c-0.2,0-0.5-0.1-0.6-0.3l-0.9-1.3
		c-0.3-0.4-0.8-0.5-1.2-0.3l-1.7,1.1c-0.2,0.1-0.3,0.3-0.4,0.5c0,0.2,0,0.5,0.1,0.6l0.9,1.3c0.1,0.2,0.1,0.5,0,0.7s-0.4,0.3-0.6,0.2
		l-1.5-0.3c-0.5-0.1-0.9,0.2-1,0.7l-0.4,2c-0.1,0.5,0.2,0.9,0.7,1l1.5,0.3c0.2,0.1,0.4,0.2,0.5,0.5c0,0.2-0.1,0.5-0.3,0.6l-1.3,0.9
		c-0.2,0.1-0.3,0.3-0.4,0.5c0,0.2,0,0.5,0.1,0.6l1.1,1.7c0.3,0.4,0.8,0.5,1.2,0.3l1.3-0.9c0.2-0.1,0.5-0.1,0.7,0
		c0.2,0.1,0.3,0.4,0.2,0.6l-0.3,1.5c-0.1,0.5,0.2,0.9,0.7,1l2,0.4c0.5,0.1,0.9-0.2,1-0.7l0.3-1.5c0.1-0.2,0.2-0.4,0.5-0.5
		c0.2,0,0.5,0.1,0.6,0.3l0.9,1.3c0.3,0.4,0.8,0.5,1.2,0.3l1.7-1.1c0.2-0.1,0.3-0.3,0.4-0.5c0-0.2,0-0.5-0.1-0.6l-0.9-1.3
		c-0.1-0.2-0.1-0.5,0-0.7c0.1-0.2,0.4-0.3,0.6-0.2l1.5,0.3c0.5,0.1,0.9-0.2,1-0.7l0.4-2C133.3,950,133,949.5,132.6,949.4z
		 M132.2,952.3c0,0.1-0.2,0.2-0.3,0.2l-1.5-0.3c-0.5-0.1-1,0.1-1.3,0.5c-0.3,0.4-0.3,0.9,0,1.4l0.9,1.3c0.1,0.1,0,0.3-0.1,0.3
		l-1.7,1.1c-0.1,0.1-0.3,0-0.3-0.1l-0.9-1.3c-0.3-0.4-0.8-0.6-1.2-0.5c-0.5,0.1-0.9,0.5-1,0.9l-0.3,1.5c0,0.1-0.2,0.2-0.3,0.2
		l-2-0.4c-0.1,0-0.2-0.2-0.2-0.3l0.3-1.5c0.1-0.5-0.1-1-0.5-1.3c-0.1-0.1-0.3-0.2-0.4-0.2c-0.3-0.1-0.6,0-0.9,0.2l-1.3,0.9
		c-0.1,0.1-0.3,0-0.3-0.1l-1.1-1.7c-0.1-0.1,0-0.3,0.1-0.3l1.3-0.9c0.4-0.3,0.6-0.8,0.5-1.2c-0.1-0.5-0.5-0.9-0.9-1l-1.5-0.3
		c-0.1,0-0.2-0.2-0.2-0.3l0.4-2c0-0.1,0.2-0.2,0.3-0.2l1.5,0.3c0.5,0.1,1-0.1,1.3-0.5c0.3-0.4,0.3-0.9,0-1.4l-0.9-1.3
		c-0.1-0.1,0-0.3,0.1-0.3l1.7-1.1c0.1-0.1,0.3,0,0.3,0.1l0.9,1.3c0.3,0.4,0.8,0.6,1.2,0.5c0.5-0.1,0.9-0.5,1-0.9l0.3-1.5
		c0-0.1,0.2-0.2,0.3-0.2l2,0.4c0.1,0,0.2,0.2,0.2,0.3l-0.3,1.5c-0.1,0.5,0.1,1,0.5,1.3c0.4,0.3,0.9,0.3,1.4,0l1.3-0.9
		c0.1-0.1,0.3,0,0.3,0.1l1.1,1.7c0.1,0.1,0,0.3-0.1,0.3l-1.3,0.9c-0.4,0.3-0.6,0.8-0.5,1.2c0.1,0.5,0.5,0.9,0.9,1l1.5,0.3
		c0.1,0,0.2,0.2,0.2,0.3L132.2,952.3z"/>
	
		<linearGradient id="SVGID_41_" gradientUnits="userSpaceOnUse" x1="104.467" y1="950.6148" x2="110.0512" y2="950.6148" gradientTransform="matrix(0.9281 -0.3723 0.3723 0.9281 -328.6617 107.3669)">
		<stop  offset="0" style="stop-color:#6152F5"/>
		<stop  offset="1" style="stop-color:#66A6FC"/>
	</linearGradient>
	<path class="st54" d="M125.4,947c-1.5-0.3-3,0.6-3.3,2.2s0.6,3,2.2,3.3s3-0.6,3.3-2.2C127.9,948.8,126.9,947.3,125.4,947z
		 M124.4,951.8c-1.2-0.2-1.9-1.4-1.7-2.6c0.2-1.2,1.4-1.9,2.6-1.7c1.2,0.2,1.9,1.4,1.7,2.6C126.7,951.3,125.5,952.1,124.4,951.8z"/>
</g>
<g class="st55">
	<path class="st56" d="M82.8,958.7C82.8,958.7,82.8,958.7,82.8,958.7l-0.6-2c0-0.3-0.3-0.5-0.5-0.6c-0.6-0.1-1.1-0.4-1.4-0.9
		c-0.3-0.5-0.4-1.1-0.3-1.6c0.1-0.5,0.5-0.9,1-1c0.7,0.3,1.4,0.3,2-0.1c0.6-0.4,1-1,1.1-1.8l0.2-3.3c0.2,0,0.5,0,0.9,0
		c0,0-0.1-0.1-0.1-0.1c-1.3,0.1-2.4,0.1-3,0.1l-0.2,3.3c0,0.7-0.4,1.4-1.1,1.8c-0.6,0.4-1.4,0.4-2,0.1c-0.5,0.1-0.9,0.5-1,1
		c-0.1,0.6,0,1.2,0.3,1.6c0.3,0.5,0.8,0.8,1.4,0.9c0.3,0,0.5,0.3,0.5,0.6l0.6,1.9c0,0,0,0,0,0.1c0.9,5,5.5,8.4,10.6,7.8
		C86.9,966,83.5,962.9,82.8,958.7z"/>
	<path class="st56" d="M91.1,936c-2.9-0.3-5.9,0.6-8,2.6c-2.2,2-3.4,4.8-3.4,7.7v5.2c0.2,0,0.4-0.1,0.6-0.2c0.2-0.1,0.3-0.4,0.3-0.6
		l0.2-4c0-0.2,0.1-0.3,0.2-0.5c0.1-0.1,0.3-0.2,0.5-0.2c0,0,0.2,0,0.5,0C82,940.9,85.9,936.5,91.1,936z"/>
	<path class="st56" d="M88,970v-2.3c-0.8-0.1-1.5-0.4-2.2-0.7v3c1.7,0.8,3.5,1.1,5.4,0.9C90,970.8,89,970.5,88,970z"/>
	<path class="st56" d="M76,977.4c0-0.1,0-0.1,0-0.2c0.4-1.6,1.7-2.9,3.4-3.5l6.5-2.1c-0.3-0.1-0.6-0.3-0.9-0.4l-7.8,2.5
		c-1.7,0.5-2.9,1.8-3.4,3.5c0,0.1,0,0.1,0,0.2c-0.1,0.4-0.1,0.7-0.1,1.1v4.9h2.2v-4.9C75.8,978.1,75.9,977.7,76,977.4z"/>
</g>
<path class="st57" d="M101.7,951.3v-5.1c0-6.5-5.2-11.7-11.7-11.7c-6.5,0-11.7,5.2-11.7,11.7v5.1c-0.9,0.3-1.6,1-1.8,2
	c-0.4,1.8,0.6,3.6,2.3,4.1l0.5,1.6c0.6,3.1,2.5,5.8,5.2,7.4v3.6l-7.7,2.5c-2.1,0.7-3.7,2.3-4.3,4.4c0,0.1,0,0.2-0.1,0.2
	c-0.1,0.5-0.2,0.9-0.1,1.4v5.5c0,0.4,0.3,0.7,0.7,0.7h20.6v-1.3h-20v-4.9c0-0.4,0-0.7,0.1-1.1c0-0.1,0-0.1,0-0.2
	c0.4-1.6,1.7-2.9,3.4-3.5l7.8-2.5c3.1,1.6,6.8,1.6,10,0l6.9,2.3l0.4-1.3l-6.7-2.2v-3.6c2.7-1.6,4.6-4.3,5.2-7.4l0.5-1.6
	c1.7-0.5,2.8-2.3,2.3-4.1C103.3,952.4,102.6,951.6,101.7,951.3z M90.9,946.4c0.9,1,3.9,3.8,9.4,4.3v0.5c-2,0-8.4-0.5-13.4-4.1
	c0.1,0,0.2,0,0.3,0C88.5,946.9,89.7,946.7,90.9,946.4z M79.6,946.3c0-5.7,4.6-10.4,10.4-10.4s10.4,4.6,10.4,10.4v3.1
	c-4.1-0.4-6.7-2.3-7.9-3.4c2.1-0.7,3.8-1.5,5.2-2.6c0.2-0.1,0.3-0.4,0.3-0.6c0-0.2-0.2-0.4-0.4-0.5c-0.2-0.1-0.5-0.1-0.7,0.1
	c-2.9,2.2-6.9,3.1-9.8,3.5c-1.9,0.3-3.8,0.3-5.7,0.3c-0.2,0-0.4,0.1-0.5,0.2c-0.1,0.1-0.2,0.3-0.2,0.5l-0.2,4c0,0.2-0.1,0.4-0.3,0.6
	c-0.2,0.1-0.4,0.2-0.6,0.2L79.6,946.3z M94.2,970c-2.7,1.3-5.8,1.3-8.5,0v-3c2.7,1.1,5.8,1.1,8.5,0V970z M100.5,956.2
	c-0.3,0-0.5,0.3-0.5,0.6l-0.6,1.9c0,0,0,0,0,0.1c-0.9,4.5-4.8,7.8-9.4,7.8c-4.6,0-8.6-3.3-9.4-7.8c0,0,0,0,0-0.1l-0.6-1.9
	c0-0.3-0.3-0.5-0.5-0.6c-0.6-0.1-1.1-0.4-1.4-0.9c-0.3-0.5-0.4-1.1-0.3-1.6c0.1-0.5,0.5-0.9,1-1c0.7,0.3,1.4,0.3,2-0.1
	c0.6-0.4,1-1,1.1-1.8l0.2-3.3c0.6,0,1.7,0,3-0.1c3.3,2.9,7.5,4.2,10.4,4.7c3.2,0.6,5.6,0.5,5.7,0.5c0,0,0,0,0.1,0
	c0.5,0.1,1,0.5,1.1,1.1c0.1,0.6,0,1.2-0.3,1.6C101.6,955.8,101.1,956.1,100.5,956.2z"/>
<path class="st57" d="M117.2,971.5c-1-0.7-3-2.1-4.4-3.5c-1.5-1.5-3.2-3.8-3.9-4.8c-0.2-0.3-0.5-0.5-0.9-0.5c-0.4-0.1-0.7,0-1,0.3
	l-7.4,5.8c-0.6,0.4-0.7,1.3-0.3,1.8c0.9,1.3,2,2.5,3,3.7l-11.6,11.6c-0.2,0.2-0.2,0.4-0.2,0.6l0.5,2.3c0.1,0.3,0.3,0.5,0.5,0.5
	l2.3,0.5c0.2,0,0.4,0,0.6-0.2l1.2-1.2l1.5,0.2c0.2,0,0.4,0,0.5-0.2c0.1-0.1,0.2-0.3,0.2-0.5l-0.1-1.2l1.3,0c0.2,0,0.4-0.1,0.5-0.2
	c0.1-0.2,0.2-0.4,0.2-0.5l-0.2-1.4l6.5-6.5c1.2,1.1,2.4,2.1,3.7,3c0.6,0.4,1.4,0.3,1.8-0.3l5.8-7.4c0.2-0.3,0.3-0.7,0.3-1
	C117.7,972,117.5,971.7,117.2,971.5L117.2,971.5z M110.7,979.9c-1.4-1-2.8-2.2-4.1-3.4c-0.3-0.2-0.7-0.2-0.9,0l-7.2,7.2
	c-0.2,0.2-0.2,0.4-0.2,0.6l0.2,1l-1.2,0c-0.2,0-0.4,0.1-0.5,0.2c-0.1,0.1-0.2,0.3-0.2,0.5l0.1,1.1l-1.1-0.1c-0.2,0-0.4,0-0.5,0.2
	l-1.1,1.1l-1.6-0.3l-0.3-1.6l11.8-11.8c0.3-0.3,0.3-0.7,0-0.9c-1.2-1.3-2.3-2.7-3.4-4.1l7.4-5.7c0.8,1.2,2.5,3.4,4,4.9
	c1.5,1.5,3.5,2.9,4.6,3.7L110.7,979.9z"/>
<path class="st57" d="M109.1,968.3l-1.2-1.4c-0.2-0.3-0.6-0.3-0.9-0.1l-1.7,1.3c-0.3,0.2-0.3,0.6-0.2,0.8l2.1,3.9
	c0.1,0.1,0.2,0.2,0.3,0.3l3.9,2.1c0.3,0.2,0.6,0.1,0.8-0.2l1.3-1.7c0.2-0.3,0.2-0.7-0.1-0.9l-1.4-1.2
	C111,970.4,110,969.4,109.1,968.3z M112.1,973.1l-0.6,0.7l-3.3-1.7l-1.7-3.3l0.7-0.6l0.8,0.9c0.9,1.1,2,2.1,3,3L112.1,973.1z"/>
<linearGradient id="SVGID_42_" gradientUnits="userSpaceOnUse" x1="38.5442" y1="311.1321" x2="131.746" y2="311.1321">
	<stop  offset="0" style="stop-color:#6152F5"/>
	<stop  offset="1" style="stop-color:#66A6FC"/>
</linearGradient>
<circle class="st58" cx="85.1" cy="311.1" r="46.6"/>
<g class="st59">
	<g>
		<path class="st60" d="M223.9,690.7c2.6,0,4.9-1.9,5.3-4.6c0.4-2.6-1.2-5.1-3.7-5.9v-14c0-0.8-0.7-1.5-1.5-1.5
			c-0.8,0-1.5,0.7-1.5,1.5v14c-2.5,0.8-4.1,3.3-3.7,5.9C219,688.8,221.2,690.7,223.9,690.7z M223.9,683.1c1.3,0,2.3,1,2.3,2.3
			c0,1.3-1,2.3-2.3,2.3c-1.3,0-2.3-1-2.3-2.3C221.6,684.1,222.6,683.1,223.9,683.1z"/>
		<path class="st60" d="M222.4,588.1v6.4c0,0.8,0.7,1.5,1.5,1.5c0.8,0,1.5-0.7,1.5-1.5v-6.4c2.5-0.8,4.1-3.3,3.7-5.9
			c-0.4-2.6-2.6-4.6-5.3-4.6c-2.6,0-4.9,1.9-5.3,4.6C218.2,584.8,219.8,587.3,222.4,588.1z M223.9,580.7c1.3,0,2.3,1,2.3,2.3
			c0,1.3-1,2.3-2.3,2.3c-1.3,0-2.3-1-2.3-2.3C221.6,581.7,222.6,580.7,223.9,580.7z"/>
		<path class="st60" d="M257.3,628.9c-0.8,0-1.5,0.7-1.5,1.5c0,0.8,0.7,1.5,1.5,1.5h14c0.8,2.5,3.3,4.1,5.9,3.7
			c2.6-0.4,4.6-2.6,4.6-5.3c0-2.6-1.9-4.9-4.6-5.3c-2.6-0.4-5.1,1.2-5.9,3.7H257.3z M276.4,628.1c1.3,0,2.3,1,2.3,2.3
			c0,1.3-1,2.3-2.3,2.3c-1.3,0-2.3-1-2.3-2.3C274.1,629.1,275.1,628.1,276.4,628.1z"/>
		<path class="st60" d="M178.8,635.7c2.4,0,4.4-1.5,5.1-3.8h6.4c0.8,0,1.5-0.7,1.5-1.5c0-0.8-0.7-1.5-1.5-1.5h-6.4
			c-0.8-2.6-3.4-4.2-6.1-3.7c-2.7,0.5-4.5,3-4.3,5.7C173.7,633.6,176,635.7,178.8,635.7z M178.8,628.1c1.3,0,2.3,1,2.3,2.3
			c0,1.3-1,2.3-2.3,2.3c-1.3,0-2.3-1-2.3-2.3C176.5,629.1,177.5,628.1,178.8,628.1z"/>
		<path class="st60" d="M180.4,591.1c0.9,0,1.8-0.2,2.5-0.6l15,15c0.6,0.6,1.6,0.6,2.1,0c0.6-0.6,0.6-1.5,0-2.1l-15-15
			c1.1-2.1,0.7-4.7-1-6.4c-1.7-1.7-4.4-2-6.4-0.7c-2.1,1.2-3,3.7-2.4,6C175.9,589.5,178,591.1,180.4,591.1L180.4,591.1z
			 M178.8,584.1c0.8-0.8,2-0.9,2.9-0.3c0.9,0.6,1.3,1.8,0.8,2.8c-0.4,1-1.5,1.6-2.6,1.4c-1.1-0.2-1.8-1.1-1.8-2.2
			C178.1,585.1,178.3,584.5,178.8,584.1z"/>
		<path class="st60" d="M258,666.1c1.9,1.9,5,2.1,7.1,0.3c2.1-1.7,2.6-4.8,1-7.1c-1.5-2.3-4.5-3-6.9-1.7l-4.5-4.5
			c-0.6-0.6-1.6-0.6-2.2,0c-0.6,0.6-0.6,1.6,0,2.2l4.5,4.5C256,661.9,256.4,664.5,258,666.1z M263.4,660.7c0.8,0.8,0.9,2,0.3,2.9
			c-0.6,0.9-1.8,1.3-2.8,0.8c-1-0.4-1.6-1.5-1.4-2.6c0.2-1.1,1.2-1.8,2.2-1.8C262.4,660.1,263,660.3,263.4,660.7z"/>
		<path class="st60" d="M197.5,655.4c-0.6-0.6-1.6-0.6-2.2,0l-9.9,9.9c-2.3-1.2-5.2-0.6-6.8,1.5c-1.6,2.1-1.4,5.1,0.5,6.9
			c1.9,1.9,4.8,2.1,6.9,0.5c2.1-1.6,2.7-4.5,1.5-6.8l9.9-9.9C198.1,656.9,198.1,656,197.5,655.4z M184.5,671.6
			c-0.8,0.8-2,0.9-2.9,0.3c-0.9-0.6-1.3-1.8-0.8-2.8c0.4-1,1.5-1.6,2.6-1.4c1.1,0.2,1.8,1.1,1.8,2.2
			C185.2,670.6,185,671.1,184.5,671.6L184.5,671.6z"/>
		<path class="st60" d="M251.4,608.1c0.4,0,0.8-0.2,1.1-0.4l4.5-4.5c2.3,1.2,5.2,0.6,6.8-1.5c1.6-2.1,1.4-5.1-0.5-6.9
			c-1.9-1.9-4.8-2.1-6.9-0.5c-2.1,1.6-2.7,4.5-1.5,6.8l-4.5,4.5c-0.4,0.4-0.6,1.1-0.3,1.7C250.2,607.7,250.8,608.1,251.4,608.1
			L251.4,608.1z M257.9,596.8c0.8-0.8,2-0.9,2.9-0.3c0.9,0.6,1.3,1.8,0.8,2.8c-0.4,1-1.5,1.6-2.6,1.4c-1.1-0.2-1.8-1.1-1.8-2.2
			C257.2,597.8,257.5,597.2,257.9,596.8L257.9,596.8z"/>
	</g>
	<path class="st60" d="M203,651.1c0.1,0.1,0.1,0.2,0.2,0.2c11.4,11.4,29.9,11.4,41.3,0c0,0,0.1-0.1,0.1-0.1c0,0,0.1-0.1,0.1-0.1
		c11.4-11.4,11.4-29.9,0-41.3c0,0-0.1-0.1-0.1-0.1c0,0-0.1-0.1-0.1-0.1c-11.4-11.4-29.9-11.4-41.3,0c0,0-0.1,0.1-0.1,0.1
		c0,0-0.1,0.1-0.1,0.1C191.6,621.2,191.6,639.6,203,651.1z M198.9,628.9h-1.3c0.3-5.9,2.7-11.6,6.6-16l0.9,0.9
		c0.4,0.4,0.9,0.5,1.5,0.4c0.5-0.1,0.9-0.6,1.1-1.1c0.1-0.5,0-1.1-0.4-1.5l-0.9-0.9c4.4-4,10.1-6.3,16-6.6v1.3
		c0,0.8,0.7,1.5,1.5,1.5c0.8,0,1.5-0.7,1.5-1.5v-1.3c5.9,0.3,11.6,2.7,16,6.6l-0.9,0.9c-0.4,0.4-0.6,0.9-0.4,1.5
		c0.1,0.5,0.6,0.9,1.1,1.1c0.5,0.1,1.1,0,1.5-0.4l0.9-0.9c4,4.4,6.3,10.1,6.6,16h-1.3c-0.8,0-1.5,0.7-1.5,1.5c0,0.8,0.7,1.5,1.5,1.5
		h1.3c-0.3,5.9-2.7,11.6-6.6,16l-0.9-0.9c-0.4-0.4-0.9-0.5-1.5-0.4c-0.5,0.1-0.9,0.6-1.1,1.1c-0.1,0.5,0,1.1,0.4,1.5l0.9,0.9
		c-4.4,4-10.1,6.3-16,6.6v-1.3c0-0.8-0.7-1.5-1.5-1.5s-1.5,0.7-1.5,1.5v1.3c-5.9-0.3-11.6-2.7-16-6.6l0.9-0.9
		c0.4-0.4,0.5-0.9,0.4-1.5c-0.1-0.5-0.6-0.9-1.1-1.1c-0.5-0.1-1.1,0-1.5,0.4l-0.9,0.9c-4-4.4-6.3-10.1-6.6-16h1.3
		c0.8,0,1.5-0.7,1.5-1.5C200.4,629.5,199.7,628.9,198.9,628.9z"/>
	<g>
		<g>
			<path class="st60" d="M223.9,651.8c-1.3,0-2.6-0.1-3.9-0.4c-0.6-0.1-0.9-0.7-0.8-1.2c0.1-0.6,0.6-0.9,1.2-0.8
				c1.2,0.2,2.3,0.3,3.5,0.3c10.7,0,19.3-8.7,19.3-19.3c0-10.7-8.7-19.3-19.3-19.3s-19.3,8.7-19.3,19.3c0,1.6,0.2,3.2,0.6,4.7
				c0.1,0.3,0.2,0.6,0.2,0.9c0.2,0.6-0.1,1.1-0.7,1.3c-0.6,0.2-1.1-0.2-1.3-0.7c-0.1-0.3-0.2-0.6-0.3-1c-0.4-1.7-0.6-3.4-0.6-5.2
				c0-11.8,9.6-21.4,21.4-21.4c11.8,0,21.4,9.6,21.4,21.4C245.3,642.2,235.7,651.8,223.9,651.8z"/>
		</g>
		<path class="st60" d="M216.9,624.8h11c0.6,0,1.1,0.5,1.1,1.1l0,0c0,0.6-0.5,1.1-1.1,1.1h-11c-0.6,0-1.1-0.5-1.1-1.1l0,0
			C215.8,625.2,216.3,624.8,216.9,624.8z"/>
		<g>
			<path class="st60" d="M223.9,646.3c-8.8,0-15.9-7.1-15.9-15.9s7.1-15.9,15.9-15.9c4.7,0,9.1,2.1,12.2,5.7
				c0.3,0.4,0.7,0.8,0.9,1.2c0.3,0.5,0.2,1.1-0.3,1.5c-0.5,0.3-1.1,0.2-1.5-0.3c-0.3-0.4-0.5-0.7-0.8-1.1c-2.6-3.1-6.5-4.9-10.6-4.9
				c-7.6,0-13.8,6.2-13.8,13.8c0,7.6,6.2,13.8,13.8,13.8c5.9,0,11.2-3.8,13.1-9.4c0.1-0.4,0.3-0.8,0.4-1.2c0.1-0.6,0.7-0.9,1.3-0.8
				c0.6,0.1,0.9,0.7,0.8,1.3c-0.1,0.5-0.3,0.9-0.4,1.4C236.8,642,230.7,646.3,223.9,646.3z"/>
		</g>
		<g>
			<path class="st60" d="M224.4,638.8c-1,0-2-0.3-2.9-0.8c-1.2-0.8-2.1-1.9-2.4-3.3c-0.1-0.3-0.1-0.7-0.1-1.1l0-10.7
				c0-0.6,0.5-1,1-1c0.6,0,1,0.5,1,1v10.7c0,0.3,0,0.5,0.1,0.6c0.2,0.8,0.7,1.5,1.5,2c1.3,0.8,3.4,0.5,4.4-0.6
				c0.4-0.4,1-0.5,1.5-0.1c0.4,0.4,0.5,1,0.1,1.5C227.6,638.2,226,638.8,224.4,638.8z"/>
		</g>
	</g>
</g>
<g>
	<g>
		<path class="st56" d="M382.9,945.1v-0.4h-3.7v0.4c0,0.7,0.3,1.3,0.7,1.8c0.5,0.5,1.1,0.7,1.8,0.7h3.7c-0.7,0-1.3-0.3-1.8-0.7
			C383.2,946.4,382.9,945.7,382.9,945.1z"/>
		<path class="st56" d="M382.9,939.3h3.1c0,0,0,0,0.1,0c-0.6,0-1.1-0.5-1.1-1.1c0-0.6,0.5-1.1,1.1-1.1c0,0,0,0-0.1,0h-3.1v-2.8h-3.7
			v2.8h3.1c0.6,0,1.1,0.5,1.1,1.1c0,0.6-0.5,1.1-1.1,1.1h-3.1v3.1h3.7V939.3z"/>
		<path class="st56" d="M377.1,919.8c-4.7-4.3-7.4-10.5-7.4-16.9c0-11.9,9.2-21.8,21-22.8c-0.5,0-1.1-0.1-1.7-0.1
			c-0.1,0-0.1,0-0.2,0c-12.6,0-22.9,10.2-22.9,22.9c0,6.4,2.7,12.5,7.4,16.9c3.4,3.2,5.5,7.6,5.8,12.2h3.7
			C382.6,927.4,380.5,923,377.1,919.8z"/>
		<g>
			<path class="st61" d="M371.9,921.4c3.2,3,5.1,7.2,5.1,11.7v12c0,2.6,2.1,4.8,4.8,4.8h6v3.7c0,0.6,0.5,1.1,1.1,1.1
				c0.6,0,1.1-0.5,1.1-1.1v-3.7h6c2.6,0,4.8-2.1,4.8-4.8v-12c0-4.5,1.9-8.7,5.2-11.8c7.6-7,10-18,6.2-27.6
				c-3.8-9.6-13.1-15.9-23.4-15.9c-10.3,0-19.6,6.4-23.3,16C361.7,903.5,364.3,914.4,371.9,921.4L371.9,921.4z M395.9,947.6h-14.2
				c-1.4,0-2.6-1.2-2.6-2.6v-0.5h12.7c0.6,0,1.1-0.5,1.1-1.1c0-0.6-0.5-1.1-1.1-1.1h-12.7v-3.1h3.1c0.6,0,1.1-0.5,1.1-1.1
				c0-0.6-0.5-1.1-1.1-1.1h-3.1v-2.9h19.4v2.9h-12.4c-0.6,0-1.1,0.5-1.1,1.1c0,0.6,0.5,1.1,1.1,1.1h12.4v3.1h-2.8
				c-0.6,0-1.1,0.5-1.1,1.1s0.5,1.1,1.1,1.1h2.8v0.5C398.5,946.5,397.4,947.6,395.9,947.6z M372.7,886.7c4.3-4.3,10.1-6.6,16.1-6.6
				h0.2c9.4,0.1,17.7,5.9,21.1,14.6c3.4,8.7,1.1,18.6-5.7,25c-3.5,3.2-5.6,7.6-5.9,12.3h-19.4c-0.3-4.7-2.3-9-5.8-12.2
				c-4.6-4.2-7.3-10.2-7.4-16.4C365.8,897.1,368.3,891.1,372.7,886.7L372.7,886.7z"/>
			<path class="st61" d="M389.7,873.5c0.6,0,1.1-0.5,1.1-1.1V865c0-0.6-0.5-1.1-1.1-1.1c-0.6,0-1.1,0.5-1.1,1.1v7.4
				C388.6,873,389.1,873.5,389.7,873.5z"/>
			<path class="st61" d="M424,899.1h-7.4c-0.6,0-1.1,0.5-1.1,1.1s0.5,1.1,1.1,1.1h7.4c0.6,0,1.1-0.5,1.1-1.1S424.6,899.1,424,899.1z
				"/>
			<path class="st61" d="M353.7,901.3h7.4c0.6,0,1.1-0.5,1.1-1.1s-0.5-1.1-1.1-1.1h-7.4c-0.6,0-1.1,0.5-1.1,1.1
				S353.1,901.3,353.7,901.3z"/>
			<path class="st61" d="M409,881.1c0.3,0,0.6-0.1,0.8-0.3l5.8-5.8c0.4-0.4,0.4-1.1,0-1.6c-0.4-0.4-1.1-0.4-1.6,0l-5.8,5.8
				c-0.3,0.3-0.4,0.8-0.2,1.2C408.2,880.9,408.6,881.1,409,881.1z"/>
			<path class="st61" d="M367.9,880.8c0.4,0.4,1.1,0.4,1.6,0c0.4-0.4,0.4-1.1,0-1.6l-5.8-5.8c-0.4-0.4-1.1-0.4-1.6,0
				c-0.4,0.4-0.4,1.1,0,1.6L367.9,880.8z"/>
		</g>
		<g>
			<g>
				<path class="st61" d="M388.6,918.7c-1,0-1.9-0.1-2.9-0.3c-0.4-0.1-0.7-0.5-0.6-0.9c0.1-0.4,0.5-0.7,0.9-0.6
					c0.9,0.2,1.7,0.2,2.6,0.2c7.9,0,14.3-6.4,14.3-14.3s-6.4-14.3-14.3-14.3s-14.3,6.4-14.3,14.3c0,1.2,0.1,2.3,0.4,3.5
					c0.1,0.2,0.1,0.4,0.2,0.6c0.1,0.4-0.1,0.8-0.5,1c-0.4,0.1-0.8-0.1-1-0.5c-0.1-0.2-0.1-0.5-0.2-0.7c-0.3-1.2-0.5-2.5-0.5-3.8
					c0-8.8,7.1-15.9,15.9-15.9c8.8,0,15.9,7.1,15.9,15.9C404.5,911.5,397.4,918.7,388.6,918.7z"/>
			</g>
			<path class="st61" d="M383.4,898.6h8.2c0.4,0,0.8,0.4,0.8,0.8l0,0c0,0.4-0.4,0.8-0.8,0.8h-8.2c-0.4,0-0.8-0.4-0.8-0.8l0,0
				C382.6,899,383,898.6,383.4,898.6z"/>
			<g>
				<path class="st61" d="M388.6,914.6c-6.5,0-11.8-5.3-11.8-11.8c0-6.5,5.3-11.8,11.8-11.8c3.5,0,6.8,1.5,9,4.2
					c0.2,0.3,0.5,0.6,0.7,0.9c0.2,0.4,0.2,0.8-0.2,1.1c-0.4,0.2-0.8,0.2-1.1-0.2c-0.2-0.3-0.4-0.5-0.6-0.8c-2-2.3-4.8-3.6-7.8-3.6
					c-5.7,0-10.3,4.6-10.3,10.3c0,5.7,4.6,10.3,10.3,10.3c4.4,0,8.3-2.8,9.7-7c0.1-0.3,0.2-0.6,0.3-0.9c0.1-0.4,0.5-0.7,0.9-0.6
					c0.4,0.1,0.7,0.5,0.6,0.9c-0.1,0.4-0.2,0.7-0.3,1C398.1,911.4,393.7,914.6,388.6,914.6z"/>
			</g>
			<g>
				<path class="st61" d="M389,909c-0.8,0-1.5-0.2-2.1-0.6c-0.9-0.6-1.5-1.4-1.8-2.4c-0.1-0.2-0.1-0.5-0.1-0.8l0-7.9
					c0-0.4,0.3-0.8,0.8-0.8s0.8,0.3,0.8,0.8v7.9c0,0.2,0,0.3,0,0.5c0.1,0.6,0.5,1.1,1.1,1.5c1,0.6,2.5,0.4,3.3-0.4
					c0.3-0.3,0.8-0.4,1.1-0.1c0.3,0.3,0.4,0.8,0.1,1.1C391.4,908.6,390.2,909,389,909z"/>
			</g>
		</g>
	</g>
	<path class="st62" d="M388.8,949.9c0,9.3,0.7,13.9,1.9,22c0.9,6.5,17.4,20.2,31.9-13.2c4.3-9.8,1.7-15.8,7.7-22.8
		c5.6-6.5,14.9-7.7,22-7.7"/>
</g>
<g>
	<path class="st63" d="M112.7,280.1c-1.4-0.8-3.2-0.7-4.6,0.1c-1.4,0.8-2.3,2.4-2.3,4V295h4.4v-10.8
		C110.3,282.5,111.2,280.9,112.7,280.1z"/>
	<path class="st63" d="M57.3,336.8v-5h-4.4v5c0,4.5,3.6,8.2,8,8.2h4.4C60.9,345,57.3,341.4,57.3,336.8z"/>
	<path class="st63" d="M72,279.5h-4.4c-3,0-5.4,2.4-5.4,5.4l-0.3,45.2h4.4l0.3-45.2C66.6,281.9,69,279.5,72,279.5z"/>
	<g>
		<path class="st64" d="M67.7,315.1h1.6c0.5,0,0.9-0.4,0.9-0.9c0-0.5-0.4-0.9-0.9-0.9h-1.6c-0.5,0-0.9,0.4-0.9,0.9
			C66.8,314.7,67.2,315.1,67.7,315.1z"/>
		<path class="st64" d="M75.1,292.5h-7.4c-0.5,0-0.9,0.4-0.9,0.9c0,0.5,0.4,0.9,0.9,0.9h7.4c0.5,0,0.9-0.4,0.9-0.9
			C76,292.9,75.6,292.5,75.1,292.5z"/>
		<path class="st64" d="M93.5,303.8c0-0.5-0.4-0.9-0.9-0.9h-8.1c-0.5,0-0.9,0.4-0.9,0.9c0,0.5,0.4,0.9,0.9,0.9h8.1
			C93.2,304.7,93.5,304.3,93.5,303.8z"/>
		<path class="st64" d="M72.1,303.8c0,0.5,0.4,0.9,0.9,0.9h7.9c0.5,0,0.9-0.4,0.9-0.9c0-0.5-0.4-0.9-0.9-0.9H73
			C72.5,302.9,72.1,303.3,72.1,303.8z"/>
		<path class="st64" d="M67.7,304.7h1.5c0.5,0,0.9-0.4,0.9-0.9c0-0.5-0.4-0.9-0.9-0.9h-1.5c-0.5,0-0.9,0.4-0.9,0.9
			C66.8,304.3,67.2,304.7,67.7,304.7z"/>
		<path class="st64" d="M103.7,339c-0.9,3.5-4.1,6-7.7,6c-4.4,0-8-3.7-8-8.2V331c0-0.5-0.4-0.9-0.9-0.9H61.7l0.3-45.2
			c0-3,2.5-5.4,5.4-5.4H106c-1.3,1.2-2,2.9-2,4.6v18.5c0,0.5,0.4,0.9,0.9,0.9s0.9-0.4,0.9-0.9v-5.9h10.2c0.5,0,0.9-0.4,0.9-0.9
			v-11.7c0-3.5-2.9-6.4-6.4-6.4c-0.1,0-0.1,0-0.2,0c0,0-0.1,0-0.1,0H67.5c-3.9,0-7.2,3.2-7.2,7.1l-0.3,45.2h-8
			c-0.5,0-0.9,0.4-0.9,0.9v5.9c0,5.3,4.1,9.6,9.2,9.9c0.1,0,0.1,0,0.2,0h35.1c0,0,0.1,0,0.1,0c0.1,0,0.3,0,0.4,0
			c4.5,0,8.4-3.2,9.5-7.6L103.7,339z M115,284.2V295h-9.3v-10.8c0-2.6,2.1-4.6,4.6-4.6S115,281.6,115,284.2z M52.8,331.9h33.4v5
			c0,3.3,1.6,6.3,4.2,8.2H60.8c-4.4,0-8-3.7-8-8.2L52.8,331.9z"/>
		<path class="st64" d="M95,292.5c-0.5,0-0.9,0.4-0.9,0.9c0,0.5,0.4,0.9,0.9,0.9h2.1c0.5,0,0.9-0.4,0.9-0.9c0-0.5-0.4-0.9-0.9-0.9
			H95z"/>
		<path class="st64" d="M91.2,294.3c0.5,0,0.9-0.4,0.9-0.9c0-0.5-0.4-0.9-0.9-0.9H78.8c-0.5,0-0.9,0.4-0.9,0.9
			c0,0.5,0.4,0.9,0.9,0.9H91.2z"/>
		<path class="st64" d="M86.3,314.2c0-0.5-0.4-0.9-0.9-0.9h-8.8c-0.5,0-0.9,0.4-0.9,0.9c0,0.5,0.4,0.9,0.9,0.9h8.8
			C85.9,315.1,86.3,314.7,86.3,314.2z"/>
		<path class="st64" d="M73.3,315.1c0.5,0,0.9-0.4,0.9-0.9c0-0.5-0.4-0.9-0.9-0.9h-1.1c-0.5,0-0.9,0.4-0.9,0.9
			c0,0.5,0.4,0.9,0.9,0.9H73.3z"/>
		<path class="st64" d="M79.6,325.4h8.8c0.5,0,0.9-0.4,0.9-0.9c0-0.5-0.4-0.9-0.9-0.9h-8.8c-0.5,0-0.9,0.4-0.9,0.9
			C78.7,325,79.1,325.4,79.6,325.4z"/>
		<path class="st64" d="M73.7,325.4h2.6c0.5,0,0.9-0.4,0.9-0.9c0-0.5-0.4-0.9-0.9-0.9h-2.6c-0.5,0-0.9,0.4-0.9,0.9
			C72.8,325,73.2,325.4,73.7,325.4z"/>
		<path class="st64" d="M67.7,325.4h3.1c0.5,0,0.9-0.4,0.9-0.9c0-0.5-0.4-0.9-0.9-0.9h-3.1c-0.5,0-0.9,0.4-0.9,0.9
			C66.8,325,67.2,325.4,67.7,325.4z"/>
	</g>
	<path class="st64" d="M120.3,310.9L120.3,310.9c-5.3-2.4-10.3-5.4-14.9-9c-0.3-0.2-0.7-0.2-1.1,0c-4.6,3.6-9.5,6.6-14.8,9l-0.1,0
		c-0.3,0.1-0.5,0.5-0.5,0.9v9.2c0,5.9,2.7,11.1,7.8,15c2.3,1.8,4.9,3.2,7.7,4.1c0.2,0,0.3,0.1,0.5,0c2.8-0.9,5.5-2.3,7.9-4.1
		c5.3-3.9,8-9.1,8-15v-9.2C120.8,311.3,120.6,311,120.3,310.9z M113.2,333.1c-0.5,0.4-0.9,0.8-1.5,1.2c-2.2,1.6-4.6,2.9-7.2,3.8
		c-2.5-0.9-4.8-2.2-6.9-3.8c-0.5-0.4-0.9-0.7-1.4-1.1l-1.4-1.3c-2.9-3.1-4.3-6.8-4.3-11v-8.6c5-2.3,9.8-5.2,14.2-8.6
		c4.4,3.4,9.2,6.3,14.2,8.6l0,8.6c0,4.1-1.4,7.7-4.3,10.8L113.2,333.1z"/>
	<path class="st64" d="M100,319.5c-0.5-0.5-1.3-0.5-1.8,0c-0.5,0.5-0.5,1.3,0,1.8l4.8,4.8c0.5,0.5,1.3,0.5,1.8,0l8.4-8.4
		c0.5-0.5,0.5-1.3,0-1.8c-0.5-0.5-1.3-0.5-1.8,0l-7.5,7.5L100,319.5z"/>
</g>
<g>
	<path class="st56" d="M902.8,875.6c0-5.3,3.7-9.8,8.9-10.7c-0.6-0.1-1.2-0.2-1.8-0.2c-6,0-10.9,4.9-10.9,10.9v4.8
		c1.3-0.4,2.3-1.2,3-2.3l0.9-1.6V875.6z"/>
	<path class="st56" d="M908.2,874.7c-0.4,0.1-0.7,0.3-0.9,0.7L907,876c2.5,1.6,5.5,2.4,8.4,2.4h3.8c-3.6,0-7.1-1.2-9.9-3.4
		C909,874.7,908.6,874.6,908.2,874.7z"/>
	<path class="st56" d="M903.8,889.3c0,0,0-0.1,0-0.1l-0.6-2.1c-0.1-0.5-0.5-1-1.1-1.1c-0.8-0.1-1.4-0.9-1.4-1.7c0-0.1,0-0.3,0-0.4
		c0.1-0.3,0.3-0.6,0.6-0.7c0.1,0,0.1,0,0.2,0c2.7,0,5.2-1.4,6.6-3.7c-1-0.4-2-1-2.9-1.6l-0.8,1.4c-1.4,2.4-3.9,3.9-6.6,3.9
		c-0.1,0-0.1,0-0.2,0c-0.3,0.1-0.5,0.4-0.6,0.7c0,0.1,0,0.3,0,0.4c0,0.8,0.6,1.6,1.4,1.7c0.5,0.1,1,0.5,1.1,1.1l0.6,2.1
		c0,0,0,0.1,0,0.1c1,5.5,6.3,9.1,11.8,8c0,0,0,0,0.1,0C907.7,896.6,904.6,893.4,903.8,889.3z"/>
	<path class="st56" d="M909.6,901.6v-1.4c-1.3,0-2.6-0.3-3.8-0.7v2.1c1.9,0.8,4,1.1,6,0.7C911.1,902.2,910.3,901.9,909.6,901.6z"/>
	<path class="st56" d="M896.2,910.3c0-0.1,0-0.1,0-0.2c0.5-1.6,1.7-2.9,3.4-3.4l6.4-2.1c-0.6-0.2-1.2-0.4-1.7-0.7l-8.5,2.8
		c-1.6,0.5-2.9,1.8-3.4,3.4c0,0.1,0,0.1,0,0.2c-0.1,0.4-0.1,0.7-0.1,1.1v4.8h3.8v-4.8C896.1,911,896.2,910.6,896.2,910.3z"/>
	<path class="st56" d="M857.3,826.7c-5.9-1.1-11.6,2.9-12.7,8.8c-0.1,0.6-0.2,1.3-0.2,1.9v0.3c0.1-0.7,0.7-1.2,1.4-1.2
		c0,0,1,0,2.5,0C848.8,831.6,852.4,827.6,857.3,826.7z"/>
	<path class="st56" d="M847.4,851.2c0,0,0-0.1,0-0.1l-0.6-2.1c-0.1-0.5-0.5-1-1.1-1.1c-0.8-0.1-1.4-0.9-1.4-1.7c0-0.1,0-0.3,0-0.4
		c0-0.2,0.2-0.4,0.3-0.5c-0.6,0.1-1.2,0.1-1.7-0.1c-0.3,0.1-0.5,0.4-0.5,0.6c0,0.1,0,0.3,0,0.4c0,0.8,0.6,1.6,1.4,1.7
		c0.5,0.1,1,0.5,1.1,1.1l0.6,2.1c0,0,0,0.1,0,0.1c0.9,4.8,5.1,8.2,9.9,8.2c0.3,0,0.6,0,1,0C851.9,858.9,848.3,855.6,847.4,851.2z"/>
	<path class="st56" d="M845.9,845.3c1.6,0,2.9-1.3,3-2.9l0.1-3.1c0.2,0,0.5,0,0.8,0c0,0-0.1-0.1-0.1-0.1c-1,0.1-1.9,0.1-2.6,0.1
		l-0.1,3.1c0,1-0.6,2-1.6,2.5c-0.1,0.1-0.3,0.1-0.5,0.2C845.3,845.3,845.6,845.3,845.9,845.3z"/>
	<path class="st56" d="M853.2,863.5v-1.6c-0.7-0.1-1.3-0.3-1.9-0.5v2.1c1.6,0.7,3.3,1,5.1,0.8C855.3,864.2,854.2,863.9,853.2,863.5z
		"/>
	<path class="st56" d="M841.8,872.1c0-0.1,0-0.1,0-0.2c0.5-1.6,1.7-2.9,3.4-3.4l6.4-2.1c-0.6-0.2-1.2-0.4-1.7-0.7l-8.5,2.8
		c-1.6,0.5-2.9,1.8-3.4,3.4c0,0.1,0,0.1,0,0.2c-0.1,0.4-0.1,0.7-0.1,1.1v4.8h3.8v-4.8C841.7,872.8,841.7,872.5,841.8,872.1z"/>
	<path class="st65" d="M875.7,879.4v-6.2c0-0.6-0.1-1.1-0.2-1.7c0-0.1,0-0.2-0.1-0.3c-0.7-2.5-2.6-4.5-5.1-5.3l-8.1-2.6v-3.2
		c3-1.9,5.1-4.9,5.7-8.4l0.4-1.4c2.1-0.8,3.2-3,2.7-5.2c-0.3-1.1-1-2-2-2.5v-5.2c0-7.5-6-13.6-13.6-13.7c-7.5,0-13.6,6-13.7,13.6
		c0,0,0,0.1,0,0.1v5.2c-1,0.5-1.8,1.4-2,2.5c-0.5,2.2,0.6,4.4,2.7,5.2l0.4,1.4c0.7,3.5,2.8,6.5,5.7,8.4v3.2l-8.1,2.6
		c-2.5,0.8-4.4,2.8-5.1,5.3c0,0.1-0.1,0.2-0.1,0.3c-0.1,0.6-0.2,1.1-0.2,1.7v6.2c0,0.7,0.6,1.3,1.3,1.3h37.9
		C875.1,880.7,875.7,880.1,875.7,879.4z M856.3,838.2c1.6,1.6,3.6,2.8,5.7,3.6c-2.5-0.5-5.5-1.4-8.3-3
		C854.5,838.6,855.4,838.5,856.3,838.2z M844.5,837.4c0-6,4.8-10.9,10.9-11c6,0,10.9,4.8,11,10.9c0,0,0,0.1,0,0.1v2.7
		c-3.3-0.5-5.6-1.8-7-2.8c1.8-0.6,3.5-1.5,5-2.7c0.6-0.5,0.7-1.3,0.2-1.9c-0.5-0.6-1.3-0.7-1.9-0.2l0,0c-6,4.6-16.7,4.1-16.8,4.1
		c-0.7,0-1.3,0.5-1.4,1.2V837.4z M845.5,851.2c0,0,0-0.1,0-0.1l-0.6-2.1c-0.1-0.5-0.5-1-1.1-1.1c-0.8-0.1-1.4-0.9-1.4-1.7
		c0-0.1,0-0.3,0-0.4c0.1-0.3,0.3-0.5,0.5-0.6c1.5,0.6,3.3-0.2,3.9-1.7c0.1-0.3,0.2-0.6,0.2-0.9l0.1-3.1c0.7,0,1.6,0,2.6-0.1
		c7.3,6.1,17.5,5.8,18,5.8c0.4,0.1,0.6,0.4,0.7,0.7c0,0.1,0,0.3,0,0.4c0,0.8-0.6,1.6-1.4,1.7c-0.5,0.1-0.9,0.5-1.1,1l-0.6,2.1
		c0,0,0,0.1,0,0.1c-1,5.5-6.3,9.1-11.8,8C849.5,858.4,846.3,855.3,845.5,851.2L845.5,851.2z M855.4,862.1c1.4,0,2.8-0.2,4.1-0.7v2.1
		c-2.6,1.1-5.6,1.1-8.2,0v-2.1C852.6,861.9,854,862.1,855.4,862.1z M873,878h-35.2v-4.8c0-0.4,0-0.7,0.1-1.1c0-0.1,0-0.1,0-0.2
		c0.5-1.6,1.7-2.9,3.4-3.4l8.5-2.8c3.5,1.7,7.6,1.7,11.2,0l8.5,2.8c1.6,0.5,2.9,1.8,3.4,3.4c0,0.1,0,0.1,0,0.2
		c0.1,0.4,0.1,0.7,0.1,1.1V878z"/>
	<path class="st65" d="M929.9,909.4c-0.7-2.5-2.6-4.5-5.1-5.3l-8.1-2.6v-3.2c3-1.9,5.1-4.9,5.7-8.4l0.4-1.4c2.1-0.8,3.2-3,2.7-5.2
		c-0.2-1-0.9-1.8-1.8-2.3c2-0.4,3.5-2.2,3.5-4.3c0-0.7-0.6-1.3-1.3-1.3c-1.4,0-2.5-0.9-2.9-2.3c-1.6-6.4-7.2-11.1-13.2-11.1
		c-7.5,0-13.6,6.1-13.6,13.6v5.2c-1,0.5-1.8,1.4-2,2.5c-0.5,2.2,0.6,4.4,2.7,5.2l0.4,1.4c0.7,3.5,2.8,6.5,5.7,8.4v3.2l-8.1,2.6
		c-2.5,0.8-4.4,2.8-5.1,5.3c0,0.1-0.1,0.2-0.1,0.3c-0.1,0.6-0.2,1.1-0.2,1.7v6.2c0,0.7,0.6,1.3,1.3,1.3h37.9c0.7,0,1.3-0.6,1.3-1.3
		v-6.2c0-0.6-0.1-1.1-0.2-1.7C930,909.6,929.9,909.5,929.9,909.4z M899,875.6c0-6,4.9-10.9,10.9-10.9c4.8,0,9.2,3.8,10.5,9
		c0.5,1.9,1.9,3.4,3.7,4c-0.3,0.4-0.8,0.6-1.3,0.6h-7.4c-3.6,0-7.1-1.2-9.9-3.4c-0.6-0.5-1.4-0.4-1.9,0.2c0,0.1-0.1,0.1-0.1,0.2
		l-1.5,2.7c-0.6,1.1-1.7,2-3,2.3L899,875.6z M900,889.3c0,0,0-0.1,0-0.1l-0.6-2.1c-0.1-0.5-0.5-1-1.1-1.1c-0.8-0.1-1.4-0.9-1.4-1.7
		c0-0.1,0-0.3,0-0.4c0.1-0.3,0.3-0.6,0.6-0.7c0.1,0,0.1,0,0.2,0c2.7,0,5.3-1.5,6.6-3.9l0.8-1.4c3.1,2,6.7,3.1,10.3,3.1h5.4v0.8
		c0,0.7,0.5,1.3,1.2,1.3c0.4,0,0.8,0.3,0.9,0.7c0,0.1,0,0.3,0,0.4c0,0.8-0.6,1.6-1.4,1.7c-0.5,0.1-0.9,0.5-1.1,1l-0.6,2.1
		c0,0,0,0.1,0,0.1c-1,5.5-6.3,9.1-11.8,8C903.9,896.6,900.7,893.4,900,889.3L900,889.3z M909.9,900.2c1.4,0,2.8-0.2,4.1-0.7v2.1
		c-2.6,1.1-5.6,1.1-8.2,0v-2.1C907.1,900,908.5,900.2,909.9,900.2z M927.5,916.2h-35.2v-4.8c0-0.4,0-0.7,0.1-1.1c0-0.1,0-0.1,0-0.2
		c0.5-1.6,1.7-2.9,3.4-3.4l8.5-2.8c3.5,1.7,7.6,1.7,11.2,0l8.5,2.8c1.6,0.5,2.9,1.8,3.4,3.4c0,0.1,0,0.1,0,0.2
		c0.1,0.4,0.1,0.7,0.1,1.1V916.2z"/>
	<linearGradient id="SVGID_43_" gradientUnits="userSpaceOnUse" x1="849.9292" y1="896.7499" x2="890.0303" y2="896.7499">
		<stop  offset="0" style="stop-color:#009A93"/>
		<stop  offset="1" style="stop-color:#29FD88"/>
	</linearGradient>
	<path class="st66" d="M882,910.9c0.2,0.7,0.9,1.2,1.6,1c0.3-0.1,0.6-0.2,0.7-0.5l5.3-7c0.5-0.6,0.3-1.4-0.3-1.9
		c-0.1,0-0.1-0.1-0.2-0.1l-8.2-4.5c-0.7-0.4-1.5-0.1-1.8,0.5c-0.2,0.3-0.2,0.6-0.1,1l1,4.2c-5.7,0.4-11.4-0.8-16.2-3.4
		c-6.9-3.8-11.2-10.2-11.4-17.2c0-0.7-0.7-1.3-1.4-1.3c-0.7,0-1.3,0.7-1.3,1.4c0.3,7.9,5.1,15.2,12.8,19.4c4.7,2.5,9.9,3.9,15.2,3.9
		c1,0,2,0,2.9-0.1L882,910.9z M886.7,904l-2.7,3.5l-0.8-3c0,0,0-0.1,0-0.1l-0.7-2.6L886.7,904z"/>
	<linearGradient id="SVGID_44_" gradientUnits="userSpaceOnUse" x1="875.5408" y1="840.7991" x2="915.6423" y2="840.7991">
		<stop  offset="0" style="stop-color:#FF6D96"/>
		<stop  offset="1" style="stop-color:#FD8073"/>
	</linearGradient>
	<path class="st67" d="M901.5,837.4c6.9,3.8,11.2,10.2,11.4,17.2c0,0.7,0.6,1.3,1.3,1.3c0,0,0,0,0.1,0c0.7,0,1.3-0.7,1.3-1.4
		c-0.3-7.9-5.1-15.2-12.8-19.4c-5.4-3-11.8-4.3-18.1-3.7l-1.2-4.7c-0.2-0.7-0.9-1.2-1.6-1c-0.3,0.1-0.6,0.2-0.7,0.5l-5.3,7
		c-0.5,0.6-0.3,1.4,0.3,1.9c0.1,0,0.1,0.1,0.2,0.1l8.2,4.5c0.7,0.4,1.5,0.1,1.8-0.5c0.2-0.3,0.2-0.6,0.1-1l-1-4.2
		C891,833.6,896.7,834.8,901.5,837.4z M878.9,833.6l2.7-3.5l0.8,3c0,0,0,0.1,0,0.1l0.7,2.6L878.9,833.6z"/>
</g>
<g>
	<g>
		<path class="st61" d="M448.1,935.4c0.4-0.3,0.9-0.5,1.4-0.6c0.5-0.1,0.9-0.1,1.5-0.2l3.6-14.6c0,0-0.1,0-0.3,0c-0.2,0-0.4,0-0.6,0
			c-0.2,0-0.4-0.1-0.6-0.1c-0.2-0.1-0.4-0.1-0.5-0.2c0-0.1-0.1-0.2-0.2-0.3c-0.1-0.1-0.1-0.2-0.2-0.4c-0.1-0.1-0.1-0.3-0.2-0.4
			s-0.1-0.3-0.1-0.4c0-0.2,0.1-0.4,0.3-0.6s0.4-0.3,0.7-0.4c0.3-0.1,0.6-0.2,0.9-0.2c0.3,0,0.6-0.1,0.9-0.1c1.2,0,2.3,0,3.4,0.1
			c1,0.1,2,0.2,2.9,0.5c0.9,0.2,1.8,0.6,2.5,1c0.8,0.4,1.6,1,2.3,1.8c0.3,0.3,0.5,0.6,0.8,0.9c0.2,0.3,0.5,0.7,0.7,1.1
			c0.2,0.4,0.3,0.8,0.5,1.3c0.1,0.5,0.2,1,0.2,1.5c0,0.3,0,0.6,0,0.9s-0.1,0.6-0.1,0.8c-0.3,1.1-0.7,2.1-1.2,3
			c-0.5,0.9-1.1,1.6-1.8,2.3c-0.7,0.7-1.4,1.3-2.2,1.7c-0.8,0.5-1.6,0.9-2.5,1.3c-0.9,0.4-1.7,0.7-2.6,1c-0.9,0.3-1.8,0.5-2.6,0.7h0
			c-0.4,0.1-0.8,0.2-1.2,0.3s-0.9,0.2-1.3,0.2c-0.4,0.1-0.9,0.1-1.3,0.1c-0.4,0-0.9,0.1-1.2,0.1c-0.4,0-0.8,0-1.1-0.1
			c-0.3-0.1-0.5-0.1-0.7-0.2c-0.2-0.1-0.3-0.2-0.4-0.3c-0.1-0.1-0.1-0.2-0.1-0.4c0-0.2,0.1-0.4,0.2-0.6
			C447.6,935.8,447.8,935.6,448.1,935.4z M454.4,931.2c-0.1,0.5-0.2,1-0.4,1.5s-0.2,1-0.4,1.5l0.3-0.1c0.2,0,0.5-0.1,0.9-0.2
			c0.4-0.1,0.8-0.2,1.3-0.4c0.5-0.1,1-0.3,1.5-0.5c0.5-0.2,1.1-0.4,1.7-0.7c0.6-0.3,1.2-0.6,1.7-1c0.6-0.4,1.1-0.8,1.6-1.2
			c0.5-0.4,1-0.9,1.4-1.4c0.4-0.5,0.7-1,0.9-1.5s0.4-1.1,0.4-1.7c0-0.6-0.1-1.1-0.3-1.7s-0.5-1-0.9-1.5s-0.8-0.8-1.4-1.2
			c-0.5-0.4-1.1-0.7-1.6-0.9c-0.6-0.3-1.1-0.4-1.7-0.6c-0.6-0.1-1.1-0.2-1.6-0.2c-0.7,1.9-1.3,3.8-1.9,5.7
			C455.4,927.3,454.9,929.3,454.4,931.2z"/>
		<path class="st61" d="M476.4,936.9c0-0.3,0-0.6,0.1-1c0.1-0.4,0.1-0.9,0.1-1.5c-0.3,0.2-0.7,0.5-1.1,0.8c-0.4,0.3-0.8,0.6-1.2,0.9
			c-0.4,0.3-0.8,0.5-1.2,0.7c-0.4,0.2-0.8,0.3-1.1,0.3c-0.3,0-0.6,0-0.8-0.1s-0.5-0.2-0.7-0.3c-0.5-0.4-0.9-0.8-1.1-1.2
			c-0.2-0.4-0.3-0.9-0.3-1.4c0-0.2,0-0.5,0.1-0.8c0-0.3,0.1-0.6,0.2-0.9c0.4-1.5,1-2.9,1.9-4.2c0.9-1.3,2-2.4,3.3-3.3
			c0.5-0.4,1-0.6,1.5-0.7c0.5-0.1,1-0.2,1.5-0.2c0.2,0,0.5,0,0.7,0c0.3,0,0.5,0.1,0.7,0.1c0.2,0,0.4-0.1,0.5-0.1c0.1,0,0.3,0,0.4,0
			c0.3,0,0.5,0,0.7,0.1c0.2,0.1,0.3,0.2,0.5,0.3s0.2,0.3,0.3,0.4c0.1,0.2,0.1,0.3,0.1,0.5c0,0.3,0,0.5-0.1,0.7s-0.2,0.5-0.2,0.7
			l-1.9,7.6c0,0.4-0.1,0.8-0.1,1.1c0,0.3-0.1,0.7-0.2,1c0,0.1-0.1,0.2-0.1,0.3c0,0.1-0.1,0.3-0.2,0.4c-0.1,0.1-0.2,0.2-0.4,0.3
			s-0.3,0.1-0.6,0.1c-0.3,0-0.5,0-0.7-0.1c-0.2,0-0.3-0.1-0.4-0.2s-0.2-0.2-0.2-0.3S476.4,937.1,476.4,936.9z M471.6,932.6
			c0,0.1-0.1,0.3-0.1,0.6s-0.1,0.5-0.1,0.8c0,0.3,0,0.5,0.1,0.7c0.1,0.2,0.2,0.3,0.5,0.3c0.4,0,0.8-0.1,1.1-0.3
			c0.4-0.2,0.7-0.4,1-0.6c0.4-0.3,0.8-0.7,1.3-1.1c0.4-0.4,0.8-0.9,1.2-1.3s0.7-0.9,1-1.4c0.3-0.5,0.5-1,0.6-1.5
			c0.1-0.3,0.1-0.6,0.2-1c0.1-0.4,0.1-0.7,0.1-1c0-0.1,0-0.2-0.1-0.4c-0.1-0.1-0.2-0.2-0.3-0.2c-0.5,0-0.9,0.1-1.4,0.3
			c-0.5,0.2-0.9,0.4-1.4,0.7c-0.4,0.3-0.9,0.7-1.3,1.1c-0.4,0.4-0.8,0.9-1.1,1.3c-0.3,0.5-0.6,1-0.8,1.5
			C471.9,931.6,471.7,932.1,471.6,932.6z"/>
		<path class="st61" d="M482.5,942.9c0.2-0.8,0.4-1.5,0.5-2.1c0.1-0.7,0.3-1.3,0.4-1.8c0.1-0.6,0.2-1.1,0.4-1.7s0.2-1.1,0.3-1.6
			c0.1-0.5,0.2-1.1,0.3-1.7c0.1-0.6,0.3-1.2,0.4-1.9l0.7-3.4c0.1-0.6,0.2-1.1,0.2-1.5s0.1-0.8,0.1-1.1c0-0.4,0-0.7,0-1
			c0-0.3,0.1-0.5,0.2-0.7s0.2-0.3,0.4-0.4c0.2-0.1,0.4-0.2,0.7-0.2c0.4,0,0.8,0.1,1,0.2c0.2,0.1,0.4,0.3,0.5,0.5
			c0.1,0.2,0.2,0.4,0.2,0.7c0,0.3,0,0.5,0,0.8c0.3-0.2,0.7-0.4,1.1-0.6c0.4-0.2,0.9-0.3,1.4-0.5c0.5-0.1,0.9-0.2,1.4-0.3
			c0.5-0.1,0.9-0.1,1.4-0.1c0.7,0,1.3,0.1,1.8,0.4c0.5,0.2,1,0.6,1.3,1s0.6,0.9,0.8,1.4c0.2,0.5,0.3,1.1,0.3,1.7
			c0,0.7-0.1,1.3-0.3,1.9c-0.2,0.6-0.5,1.1-0.9,1.6c-0.4,0.5-0.8,1-1.3,1.4c-0.5,0.4-1,0.8-1.6,1.2c-0.6,0.4-1.1,0.7-1.8,1
			c-0.6,0.3-1.2,0.6-1.8,0.8c-0.4,0.2-0.8,0.3-1.1,0.4c-0.4,0.1-0.7,0.1-0.9,0.1c-0.4,0-0.8,0-1.1-0.1c-0.4-0.1-0.7-0.2-1.1-0.4
			c-0.2,0.7-0.4,1.3-0.5,1.9c-0.1,0.6-0.2,1.1-0.3,1.6c0,0.3-0.1,0.6-0.2,0.9c-0.1,0.3-0.1,0.6-0.2,0.9s-0.1,0.6-0.2,0.9
			c-0.1,0.3-0.1,0.5-0.2,0.7c0,0.1-0.1,0.2-0.2,0.3s-0.2,0.1-0.4,0.2s-0.3,0.1-0.5,0.1c-0.2,0-0.3,0-0.4,0c-0.7,0-1.1-0.3-1.1-0.8
			C482.4,943.3,482.4,943.1,482.5,942.9z M486.9,934.5c0.1,0,0.3,0,0.5,0.1c0.2,0,0.3,0.1,0.5,0.1c0.2,0,0.3,0.1,0.4,0.1
			c0.1,0,0.2,0,0.2,0c0.2,0,0.4,0,0.6-0.1c0.2,0,0.5-0.1,0.7-0.2c0.2-0.1,0.4-0.2,0.7-0.3c0.2-0.1,0.4-0.2,0.6-0.3
			c0.5-0.2,1-0.5,1.5-0.9c0.5-0.3,1-0.7,1.5-1.2c0.5-0.4,0.8-0.9,1.1-1.5c0.3-0.5,0.4-1.2,0.4-1.8c0-0.3,0-0.5-0.1-0.8
			s-0.2-0.4-0.3-0.6c-0.1-0.2-0.3-0.3-0.5-0.4c-0.2-0.1-0.5-0.2-0.8-0.2c-0.3,0-0.6,0-0.9,0.1c-0.3,0-0.6,0.1-0.9,0.2
			s-0.6,0.2-0.8,0.4s-0.6,0.3-0.9,0.5c-0.3,0.2-0.6,0.4-0.9,0.6c-0.3,0.2-0.7,0.3-1.1,0.3L486.9,934.5z"/>
		<path class="st61" d="M499.2,942.9c0.2-0.8,0.4-1.5,0.5-2.1c0.1-0.7,0.3-1.3,0.4-1.8c0.1-0.6,0.2-1.1,0.4-1.7s0.2-1.1,0.3-1.6
			c0.1-0.5,0.2-1.1,0.3-1.7c0.1-0.6,0.3-1.2,0.4-1.9l0.7-3.4c0.1-0.6,0.2-1.1,0.2-1.5s0.1-0.8,0.1-1.1c0-0.4,0-0.7,0-1
			c0-0.3,0.1-0.5,0.2-0.7s0.2-0.3,0.4-0.4c0.2-0.1,0.4-0.2,0.7-0.2c0.4,0,0.8,0.1,1,0.2c0.2,0.1,0.4,0.3,0.5,0.5
			c0.1,0.2,0.2,0.4,0.2,0.7c0,0.3,0,0.5,0,0.8c0.3-0.2,0.7-0.4,1.1-0.6c0.4-0.2,0.9-0.3,1.4-0.5c0.5-0.1,0.9-0.2,1.4-0.3
			c0.5-0.1,0.9-0.1,1.4-0.1c0.7,0,1.3,0.1,1.8,0.4c0.5,0.2,1,0.6,1.3,1s0.6,0.9,0.8,1.4c0.2,0.5,0.3,1.1,0.3,1.7
			c0,0.7-0.1,1.3-0.3,1.9c-0.2,0.6-0.5,1.1-0.9,1.6c-0.4,0.5-0.8,1-1.3,1.4c-0.5,0.4-1,0.8-1.6,1.2c-0.6,0.4-1.1,0.7-1.8,1
			c-0.6,0.3-1.2,0.6-1.8,0.8c-0.4,0.2-0.8,0.3-1.1,0.4c-0.4,0.1-0.7,0.1-0.9,0.1c-0.4,0-0.8,0-1.1-0.1c-0.4-0.1-0.7-0.2-1.1-0.4
			c-0.2,0.7-0.4,1.3-0.5,1.9c-0.1,0.6-0.2,1.1-0.3,1.6c0,0.3-0.1,0.6-0.2,0.9c-0.1,0.3-0.1,0.6-0.2,0.9s-0.1,0.6-0.2,0.9
			c-0.1,0.3-0.1,0.5-0.2,0.7c0,0.1-0.1,0.2-0.2,0.3s-0.2,0.1-0.4,0.2s-0.3,0.1-0.5,0.1c-0.2,0-0.3,0-0.4,0c-0.7,0-1.1-0.3-1.1-0.8
			C499.1,943.3,499.1,943.1,499.2,942.9z M503.7,934.5c0.1,0,0.3,0,0.5,0.1c0.2,0,0.3,0.1,0.5,0.1c0.2,0,0.3,0.1,0.4,0.1
			c0.1,0,0.2,0,0.2,0c0.2,0,0.4,0,0.6-0.1c0.2,0,0.5-0.1,0.7-0.2c0.2-0.1,0.4-0.2,0.7-0.3c0.2-0.1,0.4-0.2,0.6-0.3
			c0.5-0.2,1-0.5,1.5-0.9c0.5-0.3,1-0.7,1.5-1.2c0.5-0.4,0.8-0.9,1.1-1.5c0.3-0.5,0.4-1.2,0.4-1.8c0-0.3,0-0.5-0.1-0.8
			s-0.2-0.4-0.3-0.6c-0.1-0.2-0.3-0.3-0.5-0.4c-0.2-0.1-0.5-0.2-0.8-0.2c-0.3,0-0.6,0-0.9,0.1c-0.3,0-0.6,0.1-0.9,0.2
			s-0.6,0.2-0.8,0.4s-0.6,0.3-0.9,0.5c-0.3,0.2-0.6,0.4-0.9,0.6c-0.3,0.2-0.7,0.3-1.1,0.3L503.7,934.5z"/>
		<path class="st61" d="M517.5,935c0.1,0,0.1,0,0.2,0c0.1,0,0.1,0,0.2,0.1c0.1,0,0.2,0,0.3,0.1c0.1,0,0.2,0,0.4,0c0.5,0,1,0,1.5-0.1
			c0.6-0.1,1.1-0.2,1.6-0.4s0.9-0.3,1.3-0.5c0.4-0.2,0.6-0.4,0.6-0.6c0-0.1,0-0.2,0-0.3c0-0.2-0.1-0.3-0.2-0.5
			c-0.2-0.1-0.4-0.3-0.6-0.4c-0.2-0.1-0.5-0.3-0.8-0.4c-0.3-0.1-0.5-0.2-0.8-0.3l-0.5-0.2c-0.3-0.1-0.5-0.2-0.7-0.4
			c-0.2-0.1-0.5-0.3-0.7-0.5c-0.2-0.2-0.4-0.4-0.5-0.6s-0.3-0.5-0.4-0.8c0-0.1-0.1-0.3-0.1-0.4s0-0.3,0-0.4c0-0.3,0.1-0.5,0.3-0.9
			c0.2-0.3,0.4-0.6,0.7-1c0.3-0.3,0.6-0.6,1-0.9c0.4-0.3,0.7-0.5,1.1-0.7c0.3-0.2,0.6-0.4,0.8-0.5s0.5-0.3,0.8-0.4
			c0.3-0.1,0.6-0.2,0.8-0.3c0.3-0.1,0.6-0.1,0.9-0.1c0.3,0,0.6,0,0.9,0c0.3,0,0.6,0.1,0.9,0.2s0.5,0.3,0.7,0.5
			c0.2,0.2,0.3,0.5,0.3,0.8c0,0.1,0,0.2,0,0.4c0,0.2-0.1,0.3-0.1,0.5c-0.1,0.2-0.2,0.3-0.2,0.4c-0.1,0.1-0.2,0.2-0.3,0.2
			c-0.2,0-0.4,0-0.5-0.1s-0.3-0.2-0.4-0.3c-0.1-0.1-0.2-0.2-0.4-0.3c-0.1-0.1-0.3-0.1-0.5-0.1c-0.2,0-0.5,0-0.8,0.1
			c-0.3,0.1-0.6,0.2-0.9,0.3s-0.6,0.3-0.9,0.5c-0.3,0.2-0.6,0.4-0.8,0.6c-0.2,0.2-0.4,0.4-0.6,0.6c-0.1,0.2-0.2,0.4-0.2,0.5
			c0,0.2,0.1,0.3,0.2,0.4c0.1,0.1,0.2,0.2,0.4,0.3c0.2,0.1,0.5,0.2,0.7,0.3c0.3,0.1,0.6,0.2,0.8,0.3c0.3,0.1,0.6,0.2,0.8,0.3
			c0.3,0.1,0.5,0.2,0.7,0.3c0.3,0.1,0.5,0.3,0.7,0.4c0.2,0.1,0.4,0.3,0.5,0.4s0.3,0.3,0.3,0.5c0.1,0.2,0.1,0.4,0.1,0.7
			c0,0.1,0,0.3,0,0.4c0,0.1,0,0.3-0.1,0.4c0,0.1-0.1,0.3-0.2,0.5c-0.1,0.2-0.1,0.4-0.2,0.6c-0.1,0.2-0.2,0.4-0.3,0.5
			c-0.1,0.2-0.2,0.2-0.2,0.3c-0.4,0.3-0.8,0.7-1.3,1c-0.5,0.3-1,0.6-1.6,0.8c-0.6,0.2-1.1,0.4-1.7,0.5c-0.6,0.1-1.1,0.2-1.5,0.2
			c-0.2,0-0.5,0-0.8-0.1c-0.3-0.1-0.5-0.2-0.8-0.4c-0.2-0.1-0.4-0.3-0.6-0.5c-0.2-0.2-0.2-0.4-0.2-0.6c0-0.1,0-0.2,0.1-0.3
			c0.1-0.1,0.1-0.2,0.2-0.3c0.1-0.1,0.2-0.2,0.3-0.3C517.3,935,517.4,935,517.5,935z"/>
	</g>
</g>
<path class="st68" d="M490.7,948.3c-12.4-3.5-26-7-39.7-4.2"/>
</svg>
