<?xml version="1.0" encoding="utf-8"?>
<!-- Generator: Adobe Illustrator 22.0.0, SVG Export Plug-In . SVG Version: 6.00 Build 0)  -->
<svg  width="56" height="56" version="1.1" id="Layer_1" xmlns="http://www.w3.org/2000/svg" xmlns:xlink="http://www.w3.org/1999/xlink" x="0px" y="0px"
	  style="enable-background:new 0 0 56 56;" xml:space="preserve">
<style type="text/css">
	.st0{fill:url(#SVGID_1_);}
	.st1{display:none;fill:url(#SVGID_2_);}
	.st2{fill:url(#SVGID_3_);}
	.st3{fill:url(#SVGID_4_);}
	.st4{fill:url(#SVGID_5_);}
	.st5{fill:url(#SVGID_6_);}
	.st6{fill:url(#SVGID_7_);}
	.st7{fill:url(#SVGID_8_);}
	.st8{fill:url(#SVGID_9_);}
	.st9{fill:url(#SVGID_10_);}
	.st10{fill:url(#SVGID_11_);}
</style>
<g>
	
		<linearGradient id="SVGID_1_" gradientUnits="userSpaceOnUse" x1="-607.9276" y1="878.0339" x2="-606.9276" y2="877.1097" gradientTransform="matrix(56 0 0 -56 34045 49173)">
		<stop  offset="0" style="stop-color:#C3FFF4"/>
		<stop  offset="1" style="stop-color:#C7E5FF"/>
	</linearGradient>
	<path class="st0" d="M0,0h56v56H0V0z"/>
	
		<linearGradient id="SVGID_2_" gradientUnits="userSpaceOnUse" x1="-592.1895" y1="857.2288" x2="-593.1895" y2="858.153" gradientTransform="matrix(24 0 0 -24 14253 20613)">
		<stop  offset="0" style="stop-color:#006DCC"/>
		<stop  offset="1" style="stop-color:#33A0FF"/>
	</linearGradient>
	<path class="st1" d="M17,16h7v8h-8v-7C16,16.4,16.4,16,17,16z M24,24h8v8h-8V24z M32,16h7c0.6,0,1,0.4,1,1v7h-8V16z M16,32h8v8h-7
		c-0.6,0-1-0.4-1-1V32z M32,32h8v7c0,0.6-0.4,1-1,1h-7V32z"/>
</g>
<g>
	<linearGradient id="SVGID_3_" gradientUnits="userSpaceOnUse" x1="14.6923" y1="37.5055" x2="22.2967" y2="37.5055">
		<stop  offset="0" style="stop-color:#6152F5"/>
		<stop  offset="1" style="stop-color:#66A6FC"/>
	</linearGradient>
	<path class="st2" d="M18.5,33.7c-2.1,0-3.8,1.7-3.8,3.8s1.7,3.8,3.8,3.8s3.8-1.7,3.8-3.8S20.6,33.7,18.5,33.7z"/>
	<linearGradient id="SVGID_4_" gradientUnits="userSpaceOnUse" x1="25.0476" y1="35.381" x2="30.9524" y2="35.381">
		<stop  offset="0" style="stop-color:#006DCC"/>
		<stop  offset="1" style="stop-color:#33A0FF"/>
	</linearGradient>
	<path class="st3" d="M28,32.4c-1.6,0-3,1.3-3,3s1.3,3,3,3s3-1.3,3-3S29.6,32.4,28,32.4z"/>
	<linearGradient id="SVGID_5_" gradientUnits="userSpaceOnUse" x1="33.7033" y1="37.5055" x2="41.3077" y2="37.5055">
		<stop  offset="0" style="stop-color:#009A93"/>
		<stop  offset="1" style="stop-color:#29FD88"/>
	</linearGradient>
	<path class="st4" d="M37.5,33.7c-2.1,0-3.8,1.7-3.8,3.8s1.7,3.8,3.8,3.8s3.8-1.7,3.8-3.8S39.6,33.7,37.5,33.7z"/>
	<linearGradient id="SVGID_6_" gradientUnits="userSpaceOnUse" x1="17.6667" y1="28" x2="23.5714" y2="28">
		<stop  offset="0" style="stop-color:#006DCC"/>
		<stop  offset="1" style="stop-color:#33A0FF"/>
	</linearGradient>
	<path class="st5" d="M20.6,25c-1.6,0-3,1.3-3,3s1.3,3,3,3s3-1.3,3-3S22.2,25,20.6,25z"/>
	<linearGradient id="SVGID_7_" gradientUnits="userSpaceOnUse" x1="24.1978" y1="28" x2="31.8022" y2="28">
		<stop  offset="0" style="stop-color:#FF6D96"/>
		<stop  offset="1" style="stop-color:#FD8073"/>
	</linearGradient>
	<path class="st6" d="M28,24.2c-2.1,0-3.8,1.7-3.8,3.8s1.7,3.8,3.8,3.8s3.8-1.7,3.8-3.8S30.1,24.2,28,24.2z"/>
	<linearGradient id="SVGID_8_" gradientUnits="userSpaceOnUse" x1="32.4286" y1="28" x2="38.3333" y2="28">
		<stop  offset="0" style="stop-color:#006DCC"/>
		<stop  offset="1" style="stop-color:#33A0FF"/>
	</linearGradient>
	<path class="st7" d="M35.4,25c-1.6,0-3,1.3-3,3s1.3,3,3,3s3-1.3,3-3S37,25,35.4,25z"/>
	<linearGradient id="SVGID_9_" gradientUnits="userSpaceOnUse" x1="14.6923" y1="18.4945" x2="22.2967" y2="18.4945">
		<stop  offset="0" style="stop-color:#009A93"/>
		<stop  offset="1" style="stop-color:#29FD88"/>
	</linearGradient>
	<path class="st8" d="M18.5,14.7c-2.1,0-3.8,1.7-3.8,3.8s1.7,3.8,3.8,3.8s3.8-1.7,3.8-3.8S20.6,14.7,18.5,14.7z"/>
	<linearGradient id="SVGID_10_" gradientUnits="userSpaceOnUse" x1="25.0476" y1="20.619" x2="30.9524" y2="20.619">
		<stop  offset="0" style="stop-color:#006DCC"/>
		<stop  offset="1" style="stop-color:#33A0FF"/>
	</linearGradient>
	<path class="st9" d="M28,17.7c-1.6,0-3,1.3-3,3s1.3,3,3,3s3-1.3,3-3S29.6,17.7,28,17.7z"/>
	<linearGradient id="SVGID_11_" gradientUnits="userSpaceOnUse" x1="33.7033" y1="18.4945" x2="41.3077" y2="18.4945">
		<stop  offset="0" style="stop-color:#6152F5"/>
		<stop  offset="1" style="stop-color:#66A6FC"/>
	</linearGradient>
	<path class="st10" d="M37.5,22.3c2.1,0,3.8-1.7,3.8-3.8s-1.7-3.8-3.8-3.8s-3.8,1.7-3.8,3.8S35.4,22.3,37.5,22.3z"/>
</g>
</svg>
